<svg viewBox="0 0 63.08 63.08" xml:space="preserve" xmlns="http://www.w3.org/2000/svg"><circle cx="31.54" cy="31.54" fill="oklch(0.7 0.1175 191.24)" r="31.54" class="fill-4f6784"></circle><path d="M37.8 47.13c-.58.58-.58 1.54 0 2.12.59.58 1.54.58 2.12 0 .58-.58.58-1.54 0-2.12-.58-.58-1.53-.58-2.12 0zm4.6-2.47a5.003 5.003 0 0 0-7.07 0c-1.18 1.18-1.63 2.8-1.39 4.33-.24.03-.49.04-.73.04-1.74 0-3.38-.67-4.6-1.9a6.5 6.5 0 0 1-.1-9.08c-1.1-.15-2.17-.43-3.17-.84-2.5 3.69-2.12 8.77 1.15 12.04a9.42 9.42 0 0 0 6.72 2.77c.74 0 1.47-.09 2.17-.26 1.96 1.9 5.08 1.9 7.02-.04 1.95-1.94 1.95-5.11 0-7.06zm-1.06 6.01c-1.36 1.36-3.59 1.36-4.96 0a3.513 3.513 0 0 1 0-4.95 3.513 3.513 0 0 1 4.95 0 3.486 3.486 0 0 1 .01 4.95zm1.48-27.89v-10.2l-4.55-1.14a2.754 2.754 0 0 0-2.48-1.56 2.76 2.76 0 1 0 0 5.52c.84 0 1.58-.38 2.09-.97l1.94.48v7.86c0 5.27-4.29 9.55-9.55 9.55-5.27 0-9.55-4.28-9.55-9.55v-7.86l1.94-.48c.51.59 1.25.97 2.09.97a2.76 2.76 0 1 0 0-5.52c-1.09 0-2.03.64-2.48 1.56l-4.55 1.14v10.2c0 6.92 5.63 12.55 12.55 12.55 6.92 0 12.55-5.63 12.55-12.55z" fill="oklch(0.97 0 0)" class="fill-ffffff"></path></svg>
