<svg xmlns="http://www.w3.org/2000/svg" fill="none" viewBox="2 2 20 20" id="Phone-Circle-Fill--Streamline-Outlined-Fill-Expansion"><desc>Phone Circle Fill Streamline Icon: https://streamlinehq.com</desc><g id="phone-circle-fill"><path id="Subtract" fill="oklch(0.7 0.1175 191.24)" fill-rule="evenodd" d="M8.1 21.2125c1.21667 0.525 2.5167 0.7875 3.9 0.7875 1.3833 0 2.6833 -0.2625 3.9 -0.7875 1.2167 -0.525 2.275 -1.2375 3.175 -2.1375 0.9 -0.9 1.6125 -1.9583 2.1375 -3.175 0.525 -1.2167 0.7875 -2.5167 0.7875 -3.9 0 -1.3833 -0.2625 -2.68333 -0.7875 -3.9 -0.525 -1.21667 -1.2375 -2.275 -2.1375 -3.175 -0.9 -0.9 -1.9583 -1.6125 -3.175 -2.1375C14.6833 2.2625 13.3833 2 12 2c-1.3833 0 -2.68333 0.2625 -3.9 0.7875 -1.21667 0.525 -2.275 1.2375 -3.175 2.1375 -0.9 0.9 -1.6125 1.95833 -2.1375 3.175C2.2625 9.31667 2 10.6167 2 12c0 1.3833 0.2625 2.6833 0.7875 3.9 0.525 1.2167 1.2375 2.275 2.1375 3.175 0.9 0.9 1.95833 1.6125 3.175 2.1375Zm4.5557 -11.63922 -0.0018 0.0147c-0.0217 0.1733 -0.0215 0.35607 0.0262 0.53112 0.0476 0.1744 0.1371 0.3299 0.2653 0.4584l0.001 0.0011 0.9406 0.9502c-0.1082 0.1708 -0.2279 0.3385 -0.3592 0.5033 -0.2154 0.2702 -0.453 0.5315 -0.7134 0.7839l-0.0055 0.0054c-0.244 0.244 -0.4994 0.47 -0.7663 0.678 -0.1662 0.1296 -0.3388 0.2524 -0.5177 0.3684l-0.8963 -0.8964c-0.1425 -0.1424 -0.3157 -0.2357 -0.4992 -0.2927 -0.18626 -0.0578 -0.37978 -0.0766 -0.57511 -0.0487l-0.01443 0.0021 -1.75843 0.3568 -0.01879 0.0053c-0.20566 0.0588 -0.38753 0.1707 -0.52977 0.3367C7.08557 13.5027 7 13.7143 7 13.95v2.025c0 0.2737 0.09655 0.5287 0.29645 0.7286 0.19989 0.1999 0.45487 0.2964 0.72855 0.2964 1.11671 0 2.2151 -0.2439 3.2914 -0.7247 1.0756 -0.4805 2.0507 -1.1603 2.9247 -2.0342 0.8739 -0.874 1.5537 -1.8491 2.0342 -2.9247C16.7561 10.2401 17 9.14171 17 8.025c0 -0.27368 -0.0965 -0.52866 -0.2964 -0.72855C16.5037 7.09655 16.2487 7 15.975 7H13.95c-0.2416 0 -0.4606 0.08601 -0.6393 0.24034 -0.1693 0.14624 -0.2901 0.34026 -0.3285 0.57461l-0.3265 1.75833Z" clip-rule="evenodd" stroke-width="1"></path></g></svg>
