<?xml version="1.0" standalone="no"?>
<!DOCTYPE svg PUBLIC "-//W3C//DTD SVG 20010904//EN"
 "http://www.w3.org/TR/2001/REC-SVG-20010904/DTD/svg10.dtd">
<svg version="1.0" xmlns="http://www.w3.org/2000/svg"
 width="2000.000000pt" height="2000.000000pt" viewBox="0 0 2000.000000 2000.000000"
 preserveAspectRatio="xMidYMid meet">

<g transform="translate(0.000000,2000.000000) scale(0.100000,-0.100000)"
fill="oklch(0.279 0.041 260.031)" stroke="none">
<path d="M9845 18323 c-15 -32 -40 -87 -55 -123 -25 -59 -43 -99 -100 -225
-10 -22 -37 -83 -60 -135 -45 -102 -80 -181 -183 -410 -35 -80 -80 -181 -100
-225 -19 -44 -53 -122 -76 -173 -56 -127 -56 -129 25 -137 71 -8 110 2 121 32
17 48 236 555 413 961 52 117 97 209 101 205 7 -7 69 -166 141 -361 27 -75 29
-86 17 -115 -7 -18 -76 -176 -154 -352 -162 -366 -160 -359 -143 -373 8 -6
154 -13 390 -17 331 -7 378 -6 383 7 4 9 -10 58 -31 109 -35 91 -91 237 -156
404 -16 44 -43 113 -59 153 -16 41 -29 81 -29 90 0 10 21 64 46 122 25 58 59
134 74 170 62 145 72 164 80 149 8 -14 278 -735 369 -984 29 -77 59 -159 67
-183 19 -51 41 -62 125 -62 89 0 89 1 -3 240 -25 63 -86 223 -137 355 -50 132
-103 267 -116 300 -13 33 -47 121 -75 195 -153 403 -160 418 -184 424 -36 10
-92 6 -108 -6 -13 -11 -61 -116 -196 -425 -15 -34 -29 -63 -32 -63 -3 0 -27
55 -52 123 -118 308 -139 361 -149 373 -7 9 -33 14 -69 14 l-59 0 -26 -57z
m394 -1036 c24 -67 57 -153 72 -192 l27 -70 -156 -3 c-85 -1 -157 -1 -159 1
-5 6 158 387 166 387 3 0 26 -55 50 -123z"/>
<path d="M8058 18183 c-20 -5 -31 -36 -57 -168 -11 -55 -43 -208 -71 -340 -28
-132 -64 -305 -81 -385 -65 -315 -89 -430 -114 -543 -28 -129 -28 -136 -16
-155 9 -15 -3 -17 476 84 446 93 553 115 680 141 123 25 155 36 155 53 0 14
-167 253 -542 775 -90 127 -206 291 -258 365 -127 184 -127 185 -172 173z
m298 -635 c111 -161 246 -355 299 -431 53 -76 95 -140 93 -142 -3 -3 -92 -22
-353 -75 -77 -16 -213 -45 -302 -63 -144 -31 -163 -33 -163 -18 -1 44 205
1040 214 1031 5 -5 100 -141 212 -302z"/>
<path d="M6745 17807 c-34 -13 -61 -29 -63 -38 -2 -14 118 -353 285 -804 25
-66 57 -156 73 -200 31 -89 114 -315 131 -357 6 -16 18 -28 27 -28 28 0 134
43 139 57 3 7 -39 133 -92 280 -105 287 -118 323 -250 683 -48 129 -100 273
-117 320 -32 90 -43 110 -62 109 -6 0 -38 -10 -71 -22z"/>
<path d="M13030 17804 c-14 -2 -52 -9 -85 -15 -308 -55 -565 -339 -605 -667
-51 -420 256 -804 682 -852 91 -11 126 -9 245 12 81 13 87 21 72 97 -18 96
-18 96 -128 76 -298 -55 -579 111 -677 400 -91 268 40 577 297 702 107 52 172
68 284 67 188 -2 327 -67 461 -219 32 -36 62 -65 67 -65 17 0 107 73 113 92
11 35 -110 172 -216 245 -61 41 -174 90 -252 108 -68 15 -216 27 -258 19z"/>
<path d="M5780 17369 c-30 -5 -86 -25 -125 -43 -157 -76 -570 -305 -572 -317
-2 -9 142 -100 373 -238 354 -211 375 -225 352 -237 -305 -165 -333 -182 -336
-200 -3 -19 295 -586 322 -612 11 -11 24 -8 75 18 34 17 64 37 67 45 3 8 -51
121 -120 252 l-125 238 97 52 c53 29 124 67 157 84 l61 32 74 -45 c379 -227
468 -278 484 -278 19 0 176 81 176 90 0 3 -124 79 -275 170 -151 91 -275 169
-275 174 0 4 14 24 30 43 124 141 145 386 47 547 -69 112 -206 204 -337 225
-73 12 -74 12 -150 0z m203 -199 c62 -29 124 -91 148 -146 26 -62 26 -183 -1
-242 -23 -52 -67 -109 -92 -123 -16 -8 -70 21 -313 168 -162 98 -295 180 -295
183 0 7 276 152 330 173 59 23 159 17 223 -13z"/>
<path d="M15139 17320 c-104 -70 -172 -123 -176 -137 -5 -15 83 -73 111 -73
22 0 245 151 258 174 4 8 0 19 -10 28 -25 21 -88 58 -99 58 -5 0 -43 -22 -84
-50z"/>
<path d="M13043 17151 c-100 -63 -80 -214 33 -251 140 -47 242 131 134 235
-40 38 -119 46 -167 16z"/>
<path d="M14705 16887 c-83 -56 -292 -201 -465 -322 -173 -120 -400 -277 -504
-349 -103 -72 -191 -137 -194 -145 -6 -17 17 -36 113 -95 288 -177 707 -434
790 -486 153 -96 213 -130 224 -130 6 0 16 10 21 23 11 27 41 213 76 472 64
480 95 705 124 895 l31 205 -22 18 c-12 9 -26 17 -33 17 -6 0 -79 -46 -161
-103z m11 -224 c-3 -16 -19 -118 -36 -228 -79 -537 -119 -787 -125 -793 -5 -6
-37 12 -270 156 -462 284 -447 274 -433 287 7 7 146 106 308 221 162 114 351
247 419 296 69 48 129 88 134 88 5 0 6 -12 3 -27z"/>
<path d="M4489 16630 c-35 -28 -69 -57 -75 -65 -11 -15 -5 -72 55 -540 16
-126 28 -231 26 -233 -1 -2 -31 8 -66 22 -35 14 -172 64 -304 111 -132 47
-263 95 -292 106 -29 12 -58 17 -65 13 -43 -26 -148 -118 -141 -124 8 -8 107
-43 478 -171 110 -37 255 -88 322 -111 l122 -43 141 -175 c78 -96 167 -207
198 -247 31 -39 62 -74 69 -77 13 -5 112 64 125 88 6 11 -48 85 -197 271 -113
141 -205 261 -205 268 0 7 -9 82 -20 167 -11 85 -31 250 -45 365 -35 294 -51
415 -57 420 -3 3 -34 -17 -69 -45z"/>
<path d="M9515 16540 c-27 -5 -83 -9 -124 -9 -40 -1 -115 -6 -165 -11 -50 -6
-127 -15 -171 -20 -262 -30 -450 -56 -505 -70 -19 -5 -48 -11 -65 -14 -16 -3
-50 -9 -75 -15 -25 -5 -70 -14 -100 -21 -66 -13 -120 -25 -180 -40 -25 -6 -61
-15 -80 -19 -42 -11 -183 -48 -225 -61 -86 -24 -242 -73 -260 -80 -11 -5 -49
-18 -85 -30 -64 -21 -80 -27 -130 -48 -14 -6 -83 -33 -155 -60 -71 -27 -157
-62 -190 -77 -33 -15 -73 -33 -90 -40 -204 -89 -574 -276 -724 -367 -34 -21
-65 -38 -68 -38 -2 0 -23 -13 -46 -28 -23 -16 -49 -32 -57 -35 -17 -7 -256
-163 -292 -190 -36 -27 -200 -146 -228 -165 -348 -234 -1000 -856 -1330 -1268
-14 -17 -52 -64 -85 -105 -58 -71 -138 -177 -238 -313 -52 -72 -297 -442 -297
-450 0 -2 -22 -40 -49 -84 -113 -185 -287 -521 -374 -722 -8 -19 -24 -56 -36
-82 -11 -26 -21 -50 -21 -53 0 -3 -9 -27 -21 -53 -12 -26 -24 -56 -29 -67 -4
-11 -13 -33 -20 -50 -26 -61 -63 -163 -100 -275 -12 -36 -25 -74 -30 -85 -5
-11 -14 -38 -21 -60 -6 -22 -15 -48 -20 -57 -5 -10 -9 -29 -9 -42 0 -14 -4
-27 -9 -30 -5 -3 -11 -18 -14 -33 -3 -16 -10 -46 -17 -68 -6 -22 -15 -53 -20
-70 -19 -68 -84 -323 -91 -362 -5 -24 -14 -63 -19 -88 -22 -98 -31 -146 -61
-302 -31 -165 -29 -152 -59 -383 -71 -551 -80 -1158 -25 -1710 29 -294 43
-397 86 -642 6 -35 15 -85 19 -113 8 -47 20 -103 40 -200 5 -22 12 -53 15 -70
3 -16 10 -46 15 -65 5 -19 16 -69 26 -110 20 -92 61 -246 94 -350 9 -30 28
-89 40 -130 13 -41 27 -79 32 -84 4 -6 8 -17 8 -25 0 -17 81 -243 111 -308 10
-24 19 -47 19 -53 0 -6 4 -18 9 -28 9 -16 30 -63 85 -185 14 -32 26 -60 26
-63 0 -9 177 -359 227 -449 83 -148 87 -155 168 -290 113 -188 235 -368 376
-554 68 -90 133 -176 144 -191 18 -24 113 -138 125 -150 6 -6 114 -131 150
-175 22 -26 148 -164 189 -206 209 -216 413 -414 501 -485 19 -15 55 -46 80
-69 60 -53 95 -82 155 -130 28 -22 52 -42 55 -45 3 -3 21 -17 42 -32 20 -15
42 -33 50 -40 8 -7 21 -17 30 -23 8 -5 62 -45 119 -89 95 -72 532 -366 543
-366 3 0 37 -20 75 -45 38 -25 72 -45 74 -45 3 0 34 -17 68 -39 172 -104 519
-275 741 -366 62 -26 129 -54 148 -62 36 -15 63 -27 103 -42 12 -4 33 -13 47
-19 36 -15 185 -67 250 -87 30 -9 64 -20 75 -25 11 -4 40 -13 65 -20 25 -7 54
-16 65 -20 11 -4 40 -13 65 -20 25 -7 56 -16 70 -20 14 -4 45 -13 70 -20 25
-6 59 -15 75 -20 74 -20 224 -52 425 -91 30 -6 71 -14 90 -19 19 -5 55 -12 80
-15 25 -4 70 -11 100 -16 126 -21 345 -49 455 -59 653 -57 1289 -43 1840 40
39 6 99 15 135 20 36 6 88 14 115 19 28 5 68 12 90 16 22 3 56 10 75 15 19 5
62 14 95 20 85 15 204 40 248 51 90 22 126 32 192 51 39 11 79 24 90 28 11 4
49 17 85 29 169 56 337 113 355 121 11 4 47 18 80 30 74 27 88 33 147 59 26
12 50 21 53 21 30 0 513 238 685 337 195 113 245 143 308 185 41 26 76 48 79
48 7 0 255 170 279 191 11 11 25 19 31 19 6 0 13 3 15 8 2 4 64 53 138 108
306 229 787 654 995 880 55 60 127 138 160 174 34 36 83 92 110 124 28 33 79
93 114 135 162 194 435 577 585 821 62 101 66 107 146 245 55 94 281 537 314
615 11 25 29 68 42 95 12 28 41 97 64 155 22 58 45 115 51 128 5 12 14 33 19
47 6 14 14 35 19 48 40 96 157 456 191 587 7 25 16 54 20 65 5 11 11 34 15 50
3 17 10 46 15 65 63 241 103 446 150 765 28 190 38 274 62 545 18 197 17 1095
0 1280 -23 242 -50 458 -72 575 -5 28 -19 104 -30 170 -20 117 -52 272 -71
348 -5 20 -14 56 -20 80 -6 23 -13 57 -16 75 -3 18 -9 35 -14 38 -5 3 -9 18
-9 34 0 16 -4 32 -10 35 -5 3 -10 19 -10 35 0 16 -4 32 -10 35 -5 3 -10 14
-10 23 0 27 -103 350 -140 437 -4 11 -18 47 -30 80 -12 33 -26 70 -31 83 -5
12 -13 32 -18 45 -5 12 -21 50 -35 83 -14 34 -26 65 -26 68 0 4 -14 37 -31 74
-17 37 -43 92 -56 122 -35 77 -169 344 -206 410 -62 114 -146 263 -185 332
-19 33 -53 86 -151 238 -20 30 -40 62 -46 71 -118 190 -423 580 -672 860 -110
124 -510 522 -610 607 -179 153 -289 242 -393 320 -63 48 -121 92 -128 99 -44
42 -516 345 -672 431 -25 14 -80 45 -122 68 -71 40 -372 189 -493 244 -73 33
-136 61 -170 75 -16 7 -46 19 -65 28 -19 8 -91 36 -160 62 -69 26 -134 51
-145 55 -11 5 -38 14 -60 21 -22 7 -44 17 -49 21 -6 4 -18 8 -28 8 -10 0 -26
4 -36 9 -16 9 -44 18 -192 63 -76 23 -239 67 -292 79 -21 5 -56 14 -78 19 -99
25 -128 32 -167 41 -175 38 -196 42 -398 78 -96 17 -341 49 -455 60 -63 7
-155 16 -205 21 -209 22 -419 30 -725 29 -179 -1 -347 -5 -375 -9z m1100 -309
c176 -15 389 -41 505 -61 30 -5 82 -14 115 -20 81 -14 151 -27 205 -39 25 -5
77 -16 115 -25 88 -18 362 -89 435 -112 209 -65 474 -156 568 -195 12 -5 32
-13 45 -18 12 -5 38 -16 57 -24 19 -9 58 -24 85 -35 28 -11 80 -34 117 -51 36
-17 69 -31 72 -31 3 0 102 -47 218 -105 194 -95 286 -143 391 -203 20 -12 54
-32 75 -43 65 -37 185 -111 229 -140 23 -16 45 -29 48 -29 8 0 317 -209 325
-220 3 -3 21 -17 40 -30 29 -20 115 -87 244 -190 10 -8 42 -35 71 -60 28 -25
96 -83 151 -130 127 -108 510 -485 622 -613 48 -54 151 -178 230 -275 79 -97
148 -184 155 -192 78 -95 397 -570 397 -590 0 -5 4 -10 9 -10 5 0 11 -8 14
-17 6 -18 37 -73 47 -83 3 -3 18 -30 34 -60 46 -87 67 -124 76 -135 10 -12
198 -389 225 -450 19 -43 40 -91 60 -140 7 -16 22 -50 32 -75 11 -25 37 -90
58 -145 20 -55 43 -113 50 -130 8 -16 21 -52 30 -80 9 -27 20 -59 24 -70 31
-73 132 -421 156 -540 4 -16 10 -39 15 -50 5 -11 11 -33 15 -50 3 -16 10 -48
14 -70 5 -22 14 -65 21 -95 98 -444 144 -906 144 -1475 1 -317 -6 -495 -24
-670 -6 -49 -15 -144 -20 -210 -12 -131 -23 -225 -40 -325 -6 -36 -15 -92 -21
-125 -13 -81 -26 -151 -38 -205 -5 -25 -14 -70 -21 -100 -21 -106 -28 -136
-58 -250 -17 -63 -40 -153 -52 -200 -12 -47 -25 -94 -29 -105 -5 -11 -28 -81
-52 -155 -23 -74 -50 -153 -60 -175 -9 -22 -43 -107 -74 -190 -32 -82 -67
-170 -78 -195 -10 -25 -25 -58 -32 -75 -35 -82 -64 -144 -142 -300 -46 -93
-100 -199 -119 -235 -20 -36 -48 -87 -62 -115 -15 -27 -29 -52 -32 -55 -10
-10 -41 -65 -47 -83 -3 -9 -9 -17 -14 -17 -5 0 -9 -5 -9 -10 0 -25 -277 -444
-363 -550 -7 -8 -23 -31 -37 -50 -13 -19 -27 -37 -30 -40 -3 -3 -25 -32 -49
-65 -25 -33 -77 -98 -115 -144 -39 -46 -84 -100 -101 -121 -124 -152 -549
-590 -572 -590 -8 0 -13 14 -13 36 0 36 -6 65 -37 171 -8 29 -12 57 -8 62 3 6
36 28 74 50 147 86 285 208 445 392 116 134 123 142 156 189 13 19 27 37 30
40 33 26 273 386 373 560 85 147 259 495 318 635 5 11 20 47 34 80 14 33 49
119 76 190 28 72 54 139 59 150 32 73 137 426 157 525 2 14 8 34 13 45 5 11
11 31 14 45 2 14 10 43 16 65 11 44 26 112 40 190 5 28 14 73 19 100 37 193
74 492 92 745 32 432 44 1421 21 1660 -8 74 -17 176 -22 225 -9 102 -34 290
-50 380 -6 33 -15 87 -21 120 -14 84 -26 152 -39 208 -31 141 -42 187 -60 252
-6 22 -15 56 -20 75 -15 62 -27 104 -43 150 -8 25 -22 70 -31 100 -26 84 -82
233 -107 282 -5 10 -9 22 -9 28 0 5 -13 39 -30 75 -16 36 -30 68 -30 71 0 11
-181 376 -221 447 -23 40 -50 88 -61 107 -11 19 -29 47 -39 62 -11 14 -19 29
-19 32 0 3 -39 64 -86 137 -95 145 -124 195 -124 209 0 43 -413 620 -590 825
-25 28 -81 94 -125 146 -95 112 -395 417 -466 474 -27 22 -73 59 -102 83 -155
127 -261 199 -387 262 -213 108 -304 132 -490 132 -133 0 -230 -22 -340 -76
-71 -34 -102 -58 -185 -141 -140 -140 -205 -259 -245 -455 -13 -62 -7 -422 9
-555 58 -482 68 -1100 22 -1405 -23 -147 -58 -325 -81 -405 -6 -22 -14 -51
-17 -65 -3 -14 -9 -29 -12 -35 -4 -5 -20 -50 -37 -99 -33 -100 -113 -269 -130
-274 -6 -1 -15 10 -18 25 -4 15 -11 46 -17 68 -16 65 -27 115 -43 200 -8 44
-24 125 -36 180 -12 55 -26 125 -31 155 -10 58 -21 112 -39 195 -6 28 -13 71
-17 98 -3 26 -10 50 -14 53 -5 3 -9 17 -9 31 0 14 -4 42 -9 62 -5 20 -15 63
-21 96 -6 33 -15 76 -20 95 -5 19 -13 55 -19 80 -35 153 -83 348 -90 365 -8
20 -18 54 -41 135 -6 25 -16 53 -21 62 -5 10 -9 27 -9 37 0 11 -4 23 -10 26
-5 3 -10 16 -10 29 0 12 -4 26 -8 32 -5 5 -15 29 -22 54 -55 182 -202 489
-315 655 -83 124 -284 346 -339 377 -26 15 -18 32 22 51 127 58 273 172 338
263 75 105 93 161 94 283 0 172 -41 272 -160 390 -128 126 -356 251 -585 321
-22 7 -49 16 -60 20 -49 19 -206 56 -325 79 -367 68 -686 76 -1180 30 -184
-17 -362 -50 -530 -98 -19 -5 -46 -13 -60 -16 -14 -4 -34 -10 -45 -15 -11 -5
-58 -23 -105 -40 -47 -18 -125 -53 -175 -78 -49 -25 -100 -50 -112 -56 -13 -6
-23 -14 -23 -18 0 -5 -6 -8 -13 -8 -8 0 -22 -9 -32 -20 -10 -11 -23 -20 -29
-20 -18 0 -169 -150 -203 -202 -29 -43 -43 -70 -72 -141 -14 -36 -14 -200 0
-246 32 -98 47 -131 95 -198 43 -60 127 -131 216 -182 90 -51 150 -81 163 -81
35 0 11 -34 -105 -150 -125 -124 -139 -140 -207 -228 -46 -60 -130 -204 -191
-327 -58 -118 -95 -201 -143 -322 -5 -13 -13 -33 -18 -45 -5 -13 -19 -52 -31
-88 -12 -36 -25 -74 -30 -85 -23 -57 -87 -279 -126 -440 -8 -33 -19 -74 -24
-91 -6 -17 -10 -42 -10 -57 0 -14 -4 -28 -9 -31 -5 -3 -11 -23 -14 -43 -3 -21
-10 -59 -16 -85 -21 -91 -32 -143 -41 -188 -11 -53 -22 -107 -43 -210 -8 -41
-23 -120 -32 -175 -9 -55 -20 -116 -25 -135 -5 -19 -14 -57 -19 -85 -20 -101
-33 -161 -51 -235 -23 -92 -48 -209 -58 -274 -4 -22 -12 -41 -19 -43 -11 -4
-88 94 -123 155 -8 15 -18 29 -22 32 -14 11 -136 259 -167 340 -18 47 -37 93
-42 102 -5 10 -9 27 -9 37 0 11 -4 22 -9 25 -5 3 -11 18 -14 33 -3 16 -11 48
-16 73 -46 196 -62 322 -69 539 -9 273 1 644 22 846 9 83 21 197 27 255 6 58
14 141 19 185 22 202 23 229 11 313 -29 209 -64 314 -145 437 -96 144 -248
257 -416 310 -117 36 -375 31 -500 -11 -130 -44 -353 -163 -466 -250 -240
-182 -604 -558 -849 -877 -198 -257 -455 -651 -455 -699 0 -13 -26 -59 -142
-245 -36 -59 -76 -126 -89 -148 -37 -64 -232 -454 -258 -515 -44 -105 -118
-295 -140 -360 -12 -36 -26 -73 -31 -82 -6 -10 -10 -27 -10 -37 0 -11 -4 -23
-10 -26 -5 -3 -10 -17 -10 -30 0 -13 -4 -27 -10 -30 -5 -3 -10 -15 -10 -26 0
-10 -4 -27 -9 -37 -5 -9 -15 -37 -21 -62 -7 -25 -21 -70 -31 -100 -9 -30 -29
-107 -44 -170 -14 -63 -30 -131 -35 -150 -15 -59 -28 -122 -40 -190 -6 -36
-14 -74 -17 -85 -14 -53 -55 -323 -73 -475 -38 -331 -55 -782 -39 -1060 6
-113 15 -338 19 -500 5 -162 14 -344 20 -405 19 -201 55 -486 75 -580 3 -16
10 -54 15 -82 25 -132 32 -170 40 -203 5 -19 16 -71 26 -115 18 -87 42 -182
74 -290 5 -16 12 -41 15 -55 4 -14 10 -34 14 -45 5 -11 14 -38 20 -60 7 -22
21 -62 31 -90 10 -27 37 -101 60 -164 22 -63 48 -131 57 -150 8 -20 22 -52 30
-71 8 -19 25 -57 38 -85 12 -27 31 -68 40 -90 23 -52 222 -451 267 -535 69
-128 101 -185 120 -212 10 -14 18 -29 18 -32 0 -15 171 -274 254 -385 39 -51
80 -106 92 -122 34 -47 209 -239 293 -322 l78 -78 6 -72 c4 -40 10 -106 16
-147 5 -41 7 -77 5 -80 -9 -8 -379 375 -498 515 -243 289 -537 703 -685 968
-12 20 -31 54 -43 75 -43 76 -93 171 -173 332 -81 161 -90 181 -135 285 -12
28 -28 63 -36 79 -8 16 -14 33 -14 38 0 4 -9 30 -21 56 -21 46 -31 70 -48 115
-4 12 -13 33 -19 47 -13 29 -70 203 -102 310 -12 41 -26 84 -30 95 -5 11 -11
31 -15 45 -3 14 -11 40 -16 58 -24 83 -31 109 -39 142 -5 19 -14 53 -20 75
-15 54 -27 105 -46 200 -9 44 -20 98 -24 120 -58 284 -85 443 -120 710 -55
414 -55 1230 0 1675 29 239 75 509 119 705 5 22 17 76 26 120 25 117 34 156
66 265 6 19 13 49 16 65 2 17 8 39 13 50 4 11 13 40 20 65 7 25 16 54 20 65 4
11 20 61 35 110 34 112 84 263 94 290 5 11 13 32 20 48 6 15 16 39 22 55 6 15
15 35 20 44 5 10 9 22 9 28 0 6 9 32 21 58 12 26 25 56 29 67 5 11 30 72 57
135 57 137 199 421 323 645 70 127 354 564 380 585 3 3 28 36 55 73 84 115 89
121 130 172 88 110 177 215 305 360 264 299 648 664 910 864 196 150 333 249
460 333 172 114 376 238 390 238 6 0 10 5 10 10 0 6 4 10 9 10 6 0 36 15 68
34 107 62 407 211 553 275 188 82 197 86 250 106 25 9 59 23 75 30 42 19 211
78 330 116 55 17 109 35 120 39 11 5 31 11 45 15 27 7 75 20 128 36 71 20 109
31 142 39 254 63 523 120 705 150 28 5 82 14 120 20 139 23 310 45 520 64 160
16 1011 13 1200 -3z m-170 -880 c185 -27 213 -32 260 -41 28 -5 73 -14 100
-20 28 -6 65 -14 83 -17 18 -3 35 -9 38 -14 3 -5 15 -9 28 -9 49 0 355 -119
364 -142 2 -4 8 -8 14 -8 15 0 98 -58 141 -99 56 -52 91 -108 106 -168 11 -47
11 -59 -10 -123 -26 -83 -68 -135 -167 -208 -77 -57 -132 -85 -200 -103 -47
-11 -51 -11 -113 21 -192 100 -276 133 -459 181 -281 74 -746 97 -1007 49
-192 -35 -193 -36 -338 -79 -111 -33 -246 -96 -344 -160 -70 -45 -77 -46 -130
-30 -192 62 -320 147 -381 255 -27 46 -32 65 -32 122 -1 141 100 257 318 366
220 110 557 197 879 226 61 6 115 12 120 15 19 8 661 -4 730 -14z m-533 -1041
c-4 -111 -24 -239 -47 -301 -115 -306 -390 -598 -865 -917 -229 -153 -427
-306 -499 -386 -118 -130 -222 -306 -295 -501 -21 -55 -41 -109 -46 -120 -8
-17 -42 -120 -80 -240 -19 -59 -79 -295 -101 -395 -6 -25 -14 -63 -19 -85 -5
-22 -13 -58 -18 -80 -11 -45 -30 -129 -43 -192 -5 -24 -13 -63 -19 -88 -26
-118 -44 -208 -60 -295 -9 -56 -31 -178 -50 -285 -38 -213 -66 -459 -76 -659
-6 -114 4 -238 26 -326 5 -19 19 -75 31 -125 12 -49 30 -114 41 -144 10 -30
15 -58 11 -62 -13 -13 -172 -61 -189 -57 -18 3 -102 162 -129 242 -17 51 -20
60 -48 166 -48 179 -47 402 3 675 28 153 64 314 100 440 18 62 30 115 40 171
5 27 21 95 35 150 15 54 31 122 36 149 10 52 21 100 39 175 5 25 15 68 20 95
6 28 15 68 20 90 5 22 12 54 15 70 4 17 15 66 25 110 11 44 24 107 31 140 6
33 15 76 19 95 4 19 13 58 20 85 6 28 15 68 20 90 5 22 14 60 20 85 6 25 14
60 17 78 3 18 9 35 14 38 5 3 9 18 9 34 0 16 4 39 9 52 8 22 16 50 39 133 50
181 114 393 132 440 4 11 13 36 20 55 7 19 16 44 20 55 4 11 27 70 51 130 67
175 146 344 190 407 11 14 19 28 19 31 0 8 89 135 130 187 69 88 197 214 294
293 270 216 507 326 786 366 177 25 208 29 255 27 l50 -1 -3 -95z m333 85 c90
-6 114 -9 275 -40 199 -38 386 -117 552 -232 382 -265 611 -584 773 -1073 26
-80 51 -154 55 -165 13 -33 27 -77 40 -125 6 -25 16 -53 21 -62 5 -10 9 -27 9
-37 0 -11 4 -30 9 -43 14 -35 28 -89 66 -253 20 -82 40 -166 45 -185 5 -19 12
-48 15 -65 3 -16 10 -48 16 -70 5 -22 13 -60 19 -85 5 -25 13 -63 18 -85 14
-58 33 -144 42 -190 9 -47 59 -284 70 -335 5 -19 13 -57 20 -85 14 -61 27
-120 35 -160 4 -16 10 -39 15 -50 5 -11 11 -31 14 -45 2 -14 9 -42 15 -62 6
-21 16 -54 21 -73 21 -73 28 -104 59 -240 17 -77 36 -156 41 -175 5 -19 12
-48 15 -65 3 -16 10 -48 16 -70 30 -126 46 -243 58 -436 18 -270 -18 -519 -94
-665 -8 -16 -15 -32 -15 -36 0 -11 -59 -107 -94 -153 -17 -22 -32 -42 -33 -44
-2 -2 -47 10 -100 27 -54 17 -110 34 -126 38 -39 9 -42 20 -17 72 12 26 26 57
31 70 5 12 13 32 18 45 4 12 13 33 19 47 6 14 15 41 21 60 5 19 19 67 30 105
32 109 43 320 31 578 -6 121 -12 223 -14 226 -4 6 -15 77 -37 231 -10 70 -23
146 -39 225 -6 28 -15 73 -20 100 -6 28 -14 71 -20 98 -5 26 -14 66 -19 90
-13 63 -32 147 -41 187 -5 19 -16 69 -25 110 -9 41 -20 91 -25 110 -4 19 -13
58 -20 85 -6 28 -15 67 -20 88 -13 50 -25 98 -45 182 -10 39 -21 79 -25 90 -4
11 -18 54 -30 95 -73 241 -109 333 -195 502 -88 170 -196 301 -355 431 -41 34
-79 65 -85 69 -34 29 -160 118 -285 203 -239 162 -370 266 -491 392 -66 69
-169 204 -169 223 0 5 -3 10 -7 10 -5 0 -13 10 -19 23 -6 12 -21 40 -32 62
-40 74 -80 170 -106 253 -21 66 -26 103 -26 181 0 54 3 101 7 105 4 4 17 5 28
2 11 -3 61 -7 110 -11z m-3901 -70 c92 -22 163 -62 244 -139 80 -75 145 -165
163 -225 36 -121 47 -315 29 -511 -10 -105 -29 -383 -51 -725 -12 -201 -7
-654 9 -785 18 -141 37 -237 62 -320 4 -14 13 -45 20 -70 15 -54 48 -157 59
-185 98 -244 185 -398 356 -630 28 -38 62 -85 75 -103 25 -37 25 -32 -18 -162
-8 -25 -18 -61 -23 -80 -4 -19 -13 -53 -19 -75 -20 -71 -60 -320 -60 -377 0
-21 -4 -38 -9 -38 -5 0 -28 23 -52 52 -24 28 -49 56 -54 62 -81 86 -335 436
-335 462 0 4 -6 15 -14 23 -8 9 -41 70 -74 136 -73 147 -88 181 -146 338 -19
51 -44 124 -56 162 -13 39 -26 79 -30 90 -8 20 -20 75 -38 175 -6 30 -15 79
-21 108 -6 30 -11 73 -11 97 0 101 -32 101 -100 0 -28 -41 -55 -75 -61 -75 -7
0 -9 17 -5 48 3 26 9 141 12 256 6 201 1 274 -26 341 -4 11 -14 35 -21 54 -7
18 -34 69 -60 112 -33 55 -43 81 -35 87 6 5 40 14 76 20 97 17 185 63 293 152
54 45 132 183 173 305 23 70 26 97 27 216 0 75 -4 149 -10 165 -6 16 -17 49
-24 74 -44 149 -199 332 -340 401 -84 42 -138 58 -248 76 -37 6 -164 -12 -193
-28 -10 -5 -24 -9 -32 -9 -31 0 -156 -74 -266 -157 -93 -70 -300 -292 -300
-322 0 -6 -4 -11 -8 -11 -7 0 -57 -101 -82 -165 -12 -32 -30 -113 -30 -138 0
-13 -13 -31 -33 -45 -17 -12 -59 -45 -92 -73 -155 -131 -358 -226 -490 -229
-90 -2 -105 -1 -105 10 0 21 282 431 377 550 7 8 34 43 60 76 208 266 534 615
678 726 150 115 183 137 244 169 36 19 68 37 69 42 2 4 8 7 13 7 5 0 28 9 52
19 150 70 351 97 481 66z m7320 4 c144 -28 298 -92 446 -188 47 -30 87 -58 90
-61 3 -3 21 -17 40 -30 43 -30 54 -39 204 -171 208 -183 468 -461 622 -664 29
-38 61 -79 71 -90 64 -69 273 -377 273 -401 0 -18 -115 -20 -157 -3 -15 6 -38
15 -50 20 -98 38 -249 138 -379 251 -58 51 -127 110 -152 131 -56 47 -195 172
-318 287 -191 178 -342 274 -499 315 -197 51 -356 -48 -397 -249 -7 -30 -14
-304 -19 -676 -7 -581 -13 -727 -38 -935 -16 -126 -43 -295 -60 -370 -5 -22
-14 -62 -20 -90 -39 -184 -65 -280 -101 -370 -4 -11 -13 -36 -20 -55 -7 -19
-16 -44 -20 -55 -5 -11 -17 -40 -27 -65 -20 -50 -157 -324 -191 -383 -38 -65
-152 -239 -168 -254 -8 -8 -19 -23 -25 -34 -17 -33 -34 -16 -41 42 -11 90 -24
162 -62 339 -42 192 -42 203 -10 267 86 168 140 268 147 271 4 2 7 11 7 21 0
9 4 21 9 27 14 15 100 253 131 364 6 25 16 55 21 68 5 13 9 36 9 52 0 16 4 31
9 34 4 3 11 27 15 53 3 27 10 73 16 103 30 165 34 261 34 685 0 279 -5 502
-13 610 -8 94 -16 286 -18 428 -4 259 -2 281 36 430 29 117 120 223 251 291
119 63 225 79 354 55z m-3624 -555 c121 -262 299 -468 585 -678 44 -33 103
-76 130 -96 47 -34 192 -136 241 -170 44 -30 170 -129 209 -165 22 -20 55 -48
72 -62 78 -61 168 -211 201 -338 29 -106 15 -561 -23 -795 -31 -190 -59 -334
-85 -432 -6 -21 -15 -57 -21 -80 -6 -24 -15 -52 -19 -63 -4 -11 -13 -36 -20
-55 -24 -69 -112 -258 -141 -300 -9 -14 -49 -74 -90 -135 -78 -119 -181 -245
-250 -311 -97 -90 -320 -264 -338 -264 -5 0 -11 -3 -13 -7 -9 -21 -204 -116
-286 -140 -69 -20 -272 -29 -322 -14 -129 39 -173 56 -249 97 -170 92 -281
174 -417 309 -137 137 -169 175 -299 364 -160 231 -220 358 -282 591 -43 163
-64 281 -94 535 -16 134 -23 663 -9 710 42 138 87 207 220 330 109 101 121
110 530 401 241 171 423 344 561 534 30 41 129 208 129 217 0 14 34 83 42 83
4 0 21 -30 38 -66z m-4006 -175 c64 -18 107 -39 162 -81 84 -63 131 -140 182
-299 22 -67 14 -207 -17 -294 -39 -107 -138 -216 -226 -248 -67 -23 -179 -23
-225 1 -69 36 -113 181 -79 256 17 36 62 52 103 38 58 -21 110 -15 144 16 120
112 -46 305 -231 268 -81 -15 -155 -94 -207 -221 -64 -154 -66 -280 -9 -412
11 -24 19 -45 19 -49 0 -9 72 -116 93 -139 125 -135 227 -286 227 -335 0 -10
5 -22 10 -25 6 -4 10 -117 10 -305 l0 -300 -125 1 -125 1 0 191 c-1 284 -21
345 -163 507 -184 210 -267 372 -293 575 -6 49 9 185 25 235 5 14 15 45 22 70
7 25 16 50 19 55 4 6 13 26 20 45 20 50 101 169 151 221 99 101 234 193 334
227 41 14 129 14 179 1z m7823 -75 c87 -30 174 -79 220 -123 38 -36 71 -99
103 -196 12 -38 26 -79 30 -90 4 -11 18 -54 30 -95 12 -41 26 -84 31 -95 4
-11 10 -33 13 -50 2 -16 10 -50 16 -75 7 -25 14 -79 17 -120 4 -63 2 -79 -14
-98 -17 -22 -21 -22 -72 -11 -95 20 -174 72 -309 203 -128 124 -225 252 -262
346 -7 19 -16 40 -20 45 -16 23 -32 138 -26 187 13 110 18 129 51 164 41 43
85 45 192 8z m703 -544 c222 -198 216 -190 280 -355 14 -36 58 -137 89 -207
11 -26 21 -52 21 -57 0 -8 26 -73 76 -188 8 -18 21 -49 29 -68 8 -19 22 -52
31 -72 9 -21 23 -54 31 -73 8 -19 21 -48 29 -64 17 -35 11 -46 -26 -46 -27 0
-50 7 -110 34 -122 54 -340 252 -478 436 -113 149 -120 165 -99 207 37 76 44
172 18 283 -29 130 -68 277 -76 289 -3 6 -3 16 0 21 7 12 53 -23 185 -140z
m-872 -204 c34 -47 164 -183 222 -231 32 -27 37 -38 49 -105 7 -41 17 -94 22
-117 5 -23 9 -117 9 -210 0 -161 -1 -169 -24 -197 l-23 -30 -29 21 c-40 29
-59 51 -101 119 -66 109 -133 255 -172 375 -6 21 -11 111 -11 227 0 215 4 224
58 148z m-8598 -77 c0 -23 5 -60 11 -83 6 -22 15 -59 21 -81 11 -40 23 -71 55
-142 22 -48 98 -169 112 -178 25 -15 7 -50 -66 -126 -131 -137 -310 -271 -448
-335 -71 -32 -151 -42 -179 -22 -17 13 -17 17 -3 44 8 16 42 101 77 189 34 88
66 170 71 183 5 12 13 32 18 45 5 12 16 39 25 59 9 21 27 66 41 100 87 231
127 297 219 366 40 30 46 28 46 -19z m9967 -86 c21 -10 40 -21 41 -25 2 -5 11
-8 21 -8 9 0 21 -4 27 -8 5 -5 29 -14 54 -21 25 -7 55 -17 68 -22 30 -12 185
-12 198 0 5 5 23 12 41 16 31 6 33 5 89 -82 31 -48 65 -100 75 -115 10 -15 19
-30 19 -33 0 -4 13 -25 29 -49 16 -23 41 -63 55 -89 14 -26 38 -68 52 -94 46
-82 229 -446 248 -493 11 -25 28 -65 38 -90 11 -25 24 -54 28 -65 4 -11 17
-41 29 -67 12 -26 21 -52 21 -58 0 -6 4 -18 9 -28 29 -57 72 -177 78 -217 l5
-41 -43 4 c-24 2 -53 7 -64 11 -140 54 -349 204 -490 353 -187 195 -307 396
-522 868 -14 30 -43 92 -64 138 -22 45 -39 85 -39 87 0 3 -13 34 -30 68 -16
35 -30 67 -30 70 0 11 17 8 57 -10z m-10320 -80 c-11 -23 -47 -103 -47 -108 0
-2 -13 -34 -30 -70 -16 -36 -30 -68 -30 -70 0 -3 -19 -44 -41 -92 -50 -106
-88 -189 -122 -263 -121 -267 -151 -328 -222 -455 -30 -53 -184 -287 -195
-295 -3 -3 -13 -14 -21 -26 -33 -48 -143 -163 -202 -213 -62 -51 -83 -64 -157
-102 -37 -18 -110 -35 -110 -26 0 13 95 334 110 372 4 11 13 36 20 55 7 19 16
44 20 55 4 11 13 36 20 55 7 19 16 44 20 55 154 387 265 626 442 955 95 176
79 164 188 134 57 -15 74 -16 140 -5 72 12 122 25 165 42 26 10 57 11 52 2z
m9563 -194 c22 -41 95 -144 155 -219 11 -14 70 -76 132 -139 91 -91 113 -120
113 -142 0 -16 4 -48 9 -71 6 -24 14 -65 20 -93 23 -118 97 -434 110 -475 5
-14 14 -45 21 -70 7 -25 16 -56 20 -70 4 -14 13 -45 20 -70 6 -25 16 -53 21
-62 14 -28 11 -46 -10 -58 -33 -17 -61 -11 -148 31 -108 52 -223 163 -317 306
-60 92 -146 258 -146 283 0 6 -4 18 -9 28 -16 31 -28 66 -51 142 -12 41 -26
86 -30 100 -27 88 -47 262 -55 478 l-5 153 63 -3 62 -3 25 -46z m-8854 -331
c74 -79 103 -151 104 -253 1 -33 5 -82 10 -110 25 -149 -155 -511 -362 -730
-132 -140 -247 -199 -289 -149 -22 27 -18 107 10 219 6 22 13 54 16 70 3 17
11 48 16 70 41 156 63 254 97 420 44 212 39 202 111 260 36 29 106 94 155 144
49 50 92 91 95 91 4 0 21 -15 37 -32z m8227 -80 c66 -102 150 -191 202 -212
36 -15 42 -15 92 3 l54 19 14 -31 c7 -18 19 -52 26 -77 7 -25 16 -49 21 -54 4
-6 8 -20 8 -32 0 -13 5 -26 10 -29 6 -3 10 -20 10 -38 0 -17 7 -80 16 -139 11
-79 15 -165 12 -335 -3 -243 -6 -258 -55 -284 -52 -28 -156 71 -239 226 -12
22 -34 65 -50 95 -17 30 -47 98 -68 150 -21 52 -42 104 -47 115 -11 28 -64
192 -77 240 -6 22 -16 59 -22 81 -10 32 -10 57 -1 106 6 36 11 99 11 140 0 83
8 138 21 138 4 0 32 -37 62 -82z m1265 -207 c114 -57 200 -71 293 -46 26 7 42
-10 114 -123 6 -8 47 -67 92 -130 45 -64 84 -129 87 -146 5 -29 14 -78 36
-211 4 -27 13 -78 19 -112 6 -35 15 -89 20 -120 9 -53 23 -130 52 -283 17 -86
40 -194 58 -267 6 -24 15 -60 20 -80 5 -21 11 -45 14 -53 3 -8 8 -27 11 -42 6
-25 3 -28 -19 -28 -26 0 -80 27 -132 66 -45 34 -156 146 -190 192 -15 20 -31
39 -34 42 -33 28 -199 314 -199 343 0 4 -9 29 -21 55 -12 26 -26 58 -31 72 -6
14 -14 33 -19 42 -5 10 -9 27 -9 37 0 11 -4 23 -10 26 -5 3 -10 15 -10 26 0
10 -4 27 -9 37 -11 20 -58 167 -76 237 -7 28 -23 86 -35 130 -27 100 -37 142
-45 180 -3 17 -10 48 -15 70 -25 115 -24 118 38 86z m-6635 -93 c11 -173 34
-329 77 -533 27 -129 28 -460 1 -645 -17 -120 -44 -269 -59 -335 -16 -66 -32
-137 -42 -185 -6 -25 -14 -65 -20 -90 -22 -97 -40 -228 -40 -295 0 -71 20
-208 41 -279 9 -35 9 -40 -8 -50 -38 -23 -218 -43 -237 -27 -8 7 -24 37 -36
69 -12 31 -25 66 -30 77 -12 30 -27 92 -41 162 -13 67 -7 364 11 508 26 219
46 347 89 555 21 101 26 126 51 235 6 28 16 70 21 95 6 25 14 62 20 83 5 20
13 54 18 75 6 20 15 60 21 87 6 28 15 66 20 85 8 31 66 271 90 375 5 22 12 56
16 75 7 40 12 50 23 50 5 0 11 -42 14 -92z m3417 38 c0 -11 4 -33 9 -50 11
-36 25 -92 40 -156 6 -25 22 -94 36 -155 14 -60 30 -128 35 -150 5 -22 16 -69
26 -105 9 -36 20 -84 25 -107 5 -24 14 -64 19 -90 6 -27 15 -68 20 -93 5 -25
14 -67 20 -95 6 -27 15 -72 20 -100 5 -27 14 -72 19 -100 26 -134 30 -167 61
-420 26 -213 -2 -525 -62 -677 -43 -110 -104 -221 -132 -240 -33 -23 -186 16
-186 47 0 7 10 41 21 76 12 35 26 84 32 109 21 92 10 331 -23 483 -18 82 -29
131 -40 177 -11 45 -62 338 -80 463 -13 88 -13 432 0 494 6 26 19 104 31 173
11 69 25 152 30 185 21 125 29 193 35 275 7 109 10 119 29 94 8 -10 15 -28 15
-38z m-6820 -65 c0 -6 -4 -13 -10 -16 -5 -3 -10 -20 -10 -36 0 -17 -9 -63 -20
-102 -11 -40 -29 -110 -41 -157 -19 -81 -25 -102 -50 -187 -6 -21 -13 -53 -16
-71 -3 -18 -9 -35 -14 -38 -5 -3 -9 -14 -9 -25 0 -10 -4 -27 -9 -37 -5 -9 -14
-35 -21 -57 -52 -174 -176 -442 -258 -559 -69 -98 -181 -213 -246 -251 -45
-26 -124 -40 -140 -24 -6 6 4 84 24 184 10 51 20 102 39 210 6 33 16 83 22
110 13 65 25 130 34 180 9 54 54 273 64 310 5 17 14 50 20 75 24 87 34 115 51
140 10 14 27 41 37 60 91 161 156 271 164 276 5 3 15 2 22 -3 21 -14 100 -32
141 -33 43 0 172 35 181 50 8 13 45 13 45 1z m1153 -340 c54 -23 69 -42 65
-82 -2 -25 -9 -34 -28 -39 -87 -24 -134 -30 -244 -30 -123 0 -124 0 -155 29
-68 63 -24 122 109 145 52 9 212 -5 253 -23z m7463 -8 c4 -16 17 -52 30 -81
13 -29 24 -57 24 -62 0 -6 4 -18 10 -28 5 -9 37 -75 70 -147 34 -71 77 -151
96 -178 l35 -49 -4 -186 c-5 -200 -15 -278 -42 -336 -14 -30 -21 -35 -39 -30
-51 15 -140 135 -201 270 -20 43 -40 88 -45 99 -5 11 -19 52 -31 90 -12 39
-25 79 -29 90 -40 109 -39 130 9 274 21 64 44 136 51 161 6 25 16 55 21 68 5
13 9 34 9 47 0 34 28 32 36 -2z m2246 -171 c129 -108 271 -186 422 -233 23 -7
62 -9 95 -6 54 6 57 5 68 -21 6 -15 14 -40 17 -57 4 -16 11 -48 17 -70 11 -42
20 -83 39 -175 6 -30 15 -75 20 -100 6 -25 17 -88 25 -140 8 -52 19 -124 25
-160 21 -126 34 -245 60 -530 6 -58 13 -268 16 -467 6 -324 5 -363 -9 -363
-16 0 -147 126 -147 141 0 4 -6 14 -13 21 -56 57 -195 314 -252 468 -9 25 -20
54 -25 65 -4 11 -13 36 -20 55 -7 19 -16 44 -21 55 -4 11 -20 61 -34 110 -15
50 -30 101 -34 115 -5 14 -14 44 -20 68 -6 23 -16 61 -22 85 -6 23 -15 51 -19
62 -5 11 -11 31 -14 45 -2 14 -10 43 -16 65 -6 22 -16 60 -22 85 -5 25 -14 61
-19 80 -21 88 -30 131 -44 205 -8 44 -20 100 -25 125 -22 98 -39 184 -59 295
-6 33 -15 78 -20 100 -5 22 -12 55 -16 73 -9 40 3 41 47 4z m-9458 -60 c14
-37 26 -79 27 -92 0 -35 -133 -300 -149 -297 -11 2 -14 35 -13 166 l2 164 28
33 c16 18 37 46 47 63 10 17 21 31 25 31 4 0 19 -30 33 -68z m8045 4 c65 -95
217 -228 316 -278 22 -12 43 -26 47 -32 4 -6 8 -44 8 -85 0 -41 4 -113 10
-160 5 -47 14 -153 20 -236 6 -82 15 -197 21 -255 5 -58 14 -172 19 -255 6
-82 13 -167 16 -187 5 -33 3 -38 -12 -38 -44 0 -138 82 -224 195 -36 48 -48
66 -111 180 -44 79 -103 221 -143 340 -36 108 -40 123 -66 215 -7 25 -16 56
-20 70 -23 68 -21 100 6 158 52 113 54 122 61 290 2 67 9 122 13 122 5 0 23
-20 39 -44z m-8791 -8 c16 -16 17 -487 1 -555 -6 -27 -15 -64 -20 -83 -4 -19
-15 -62 -23 -95 -17 -73 -55 -202 -67 -232 -5 -13 -14 -35 -20 -50 -7 -16 -15
-37 -20 -48 -27 -70 -113 -239 -146 -286 -68 -100 -153 -184 -197 -195 l-29
-7 6 104 c6 103 27 361 47 574 6 61 15 162 21 225 5 63 13 143 16 177 5 62 6
63 61 104 85 65 211 195 281 292 35 48 66 87 70 87 4 0 12 -5 19 -12z m432
-1289 c0 -1159 -1 -1221 -17 -1213 -10 5 -65 11 -123 14 l-105 5 0 1200 0
1200 105 6 c58 3 113 6 123 7 16 2 17 -62 17 -1219z m-1951 1104 c-15 -64 -37
-176 -44 -223 -4 -25 -11 -61 -15 -80 -5 -19 -17 -73 -26 -120 -9 -47 -21
-103 -26 -125 -16 -69 -29 -129 -34 -160 -5 -29 -9 -49 -33 -140 -5 -22 -15
-62 -21 -90 -24 -109 -66 -269 -90 -345 -4 -14 -18 -59 -30 -100 -21 -71 -27
-88 -49 -142 -5 -13 -26 -66 -46 -118 -20 -52 -49 -115 -63 -140 -15 -25 -34
-58 -42 -75 -23 -45 -130 -155 -151 -155 -19 0 -19 8 -14 188 2 103 7 279 10
392 8 296 36 575 85 860 7 36 16 88 20 115 5 28 14 77 20 110 7 33 15 78 18
100 7 38 9 40 47 42 52 4 147 24 160 35 5 4 15 8 22 8 26 0 203 114 249 161
26 26 51 46 55 44 4 -3 3 -22 -2 -42z m2419 -214 c24 -46 70 -128 103 -183 61
-102 65 -114 50 -144 -5 -9 -24 -55 -42 -102 -66 -173 -127 -279 -213 -368
-58 -61 -116 -95 -154 -90 l-27 3 -3 304 -2 303 63 97 c36 53 86 136 112 184
26 48 52 86 59 84 6 -2 30 -41 54 -88z m8575 19 c117 -228 201 -355 323 -489
48 -52 45 -38 65 -404 5 -104 14 -269 20 -365 30 -549 50 -1580 30 -1580 -20
0 -121 101 -163 163 -58 85 -113 208 -149 335 -45 157 -45 157 -79 337 -16 82
-30 175 -41 260 -5 44 -14 114 -19 155 -5 41 -16 161 -25 265 -14 183 -21 262
-45 535 -6 69 -15 177 -20 240 -23 289 -30 382 -39 485 -6 60 -9 110 -8 110 7
4 85 23 97 24 10 1 30 -26 53 -71z m-1755 -55 c6 -16 22 -66 37 -112 25 -80
54 -153 78 -196 50 -90 49 -87 49 -321 0 -139 -5 -230 -11 -243 -6 -11 -11
-30 -11 -42 0 -35 -21 -85 -42 -98 -68 -42 -238 181 -308 404 -56 178 -61 227
-32 266 10 13 38 58 62 99 23 41 53 91 65 110 11 19 36 65 55 102 19 36 37 65
41 62 3 -2 11 -16 17 -31z m-8388 -25 l65 -24 -1 -79 c-1 -44 -7 -129 -13
-190 -20 -184 -44 -443 -61 -660 -6 -77 -15 -183 -20 -235 -5 -52 -14 -151
-20 -220 -12 -149 -27 -286 -40 -355 -5 -27 -12 -68 -16 -90 -3 -22 -10 -65
-15 -95 -6 -30 -12 -73 -15 -95 -4 -22 -10 -44 -15 -49 -5 -6 -9 -19 -9 -30 0
-11 -4 -33 -9 -50 -5 -17 -15 -51 -22 -76 -43 -162 -111 -320 -180 -422 -47
-69 -139 -168 -156 -168 -25 0 -31 343 -15 795 25 696 33 865 61 1320 6 88 10
166 11 173 0 8 26 41 58 75 68 73 101 117 164 213 52 80 148 263 148 283 0 15
1 14 100 -21z m9131 -5 c29 -6 36 -16 50 -73 4 -19 12 -51 17 -70 6 -19 20
-71 32 -115 25 -96 77 -253 90 -277 6 -10 10 -22 10 -28 0 -10 12 -40 69 -165
25 -54 29 -78 39 -255 13 -209 16 -438 6 -464 -5 -14 -9 -14 -37 2 -17 9 -40
25 -51 35 -11 9 -46 29 -77 44 -31 15 -64 39 -72 53 -33 56 -87 162 -87 171 0
4 -11 32 -24 61 -13 29 -43 109 -65 178 -53 160 -57 174 -71 240 -6 30 -16 69
-21 86 -11 38 -12 64 0 64 15 0 64 123 83 210 11 47 22 138 25 203 l6 118 25
-6 c13 -3 37 -9 53 -12z m-5392 -69 c9 -16 29 -48 44 -71 15 -24 27 -45 27
-48 0 -2 18 -28 40 -57 22 -29 40 -59 40 -65 0 -7 3 -13 8 -13 4 0 21 -28 37
-62 26 -54 31 -77 34 -163 5 -148 -15 -317 -55 -455 -10 -35 -59 -116 -101
-167 -39 -48 -137 -101 -193 -105 -34 -3 -36 -1 -52 47 -13 39 -17 86 -18 210
0 174 9 248 50 390 16 54 29 119 40 185 5 30 11 66 14 80 3 14 10 61 16 105
25 181 33 226 43 222 6 -2 18 -16 26 -33z m2755 -20 c3 -9 6 -35 6 -59 0 -42
39 -280 61 -375 57 -248 70 -322 76 -460 7 -165 -22 -330 -59 -330 -44 0 -147
59 -205 118 -52 52 -67 77 -103 167 -26 64 -34 143 -34 330 1 227 6 247 85
371 25 38 69 111 99 161 30 51 58 93 61 93 4 0 10 -7 13 -16z m-4634 -323 c0
-7 134 -187 150 -201 19 -17 70 -90 70 -100 0 -26 -62 -187 -102 -265 -12 -22
-34 -67 -50 -99 -99 -199 -188 -281 -233 -213 -35 55 -45 118 -45 308 l0 187
59 118 c61 123 78 160 106 232 10 23 23 42 31 42 8 0 14 -4 14 -9z m6210 -258
c0 -12 5 -25 10 -28 6 -3 10 -15 10 -26 0 -10 4 -27 9 -37 112 -219 133 -573
41 -683 -22 -28 -30 -31 -56 -25 -40 10 -142 118 -177 187 -28 54 -29 61 -28
195 1 76 6 168 11 204 5 36 10 104 10 151 l0 86 62 67 61 67 23 -68 c13 -37
24 -78 24 -90z m674 118 c29 -12 49 -53 66 -136 6 -33 25 -105 42 -160 16 -55
34 -113 38 -130 12 -45 46 -134 53 -142 4 -3 7 -12 7 -19 0 -16 48 -126 90
-206 l29 -57 -67 -68 c-37 -37 -88 -92 -112 -122 -25 -30 -54 -65 -66 -79 -35
-42 -43 -32 -132 158 -33 72 -102 276 -102 304 0 9 -4 26 -10 36 -7 14 -4 29
15 62 29 51 58 145 75 243 6 39 16 94 21 124 5 30 9 87 9 128 0 76 2 79 44 64z
m2000 -75 c32 -15 84 -30 114 -34 61 -8 53 7 107 -182 15 -52 31 -104 36 -115
33 -80 103 -301 110 -350 5 -33 15 -238 21 -455 16 -568 -8 -1183 -61 -1540
-5 -36 -14 -99 -20 -140 -13 -86 -27 -173 -41 -245 -5 -27 -12 -66 -15 -85
-12 -70 -16 -80 -30 -80 -45 0 -120 112 -163 245 -54 163 -61 287 -67 1140 -3
413 -8 768 -10 790 -2 22 -9 157 -15 300 -14 346 -27 579 -36 694 -4 56 -3 92
2 89 5 -2 36 -16 68 -32z m-11387 -153 c-9 -177 -25 -536 -38 -828 -6 -143
-12 -631 -14 -1085 -2 -818 -5 -938 -30 -1035 -35 -135 -116 -275 -158 -275
-8 0 -20 19 -27 43 -7 23 -16 53 -20 67 -52 169 -104 461 -130 730 -30 320
-35 460 -35 1095 0 649 1 661 22 720 48 136 91 263 102 303 6 23 16 61 22 85
7 23 15 56 20 72 5 17 16 64 26 105 l18 75 75 5 c41 3 91 13 110 22 64 30 63
31 57 -99z m4875 90 c8 -19 151 -136 238 -195 230 -156 408 -218 629 -218 170
0 298 30 461 108 101 48 289 181 387 275 22 21 46 36 52 33 6 -4 11 -37 11
-77 0 -135 35 -317 81 -424 62 -143 233 -295 387 -345 23 -7 42 -18 42 -24 0
-47 -144 -219 -260 -310 -104 -83 -142 -108 -292 -189 -79 -43 -282 -117 -378
-138 -191 -43 -301 -54 -515 -54 -352 0 -618 58 -903 196 -59 28 -108 55 -110
60 -2 5 -8 9 -14 9 -34 0 -220 155 -318 265 -94 106 -126 155 -117 178 2 7 26
18 53 26 168 48 356 197 421 332 63 133 103 298 103 425 0 33 3 64 7 67 9 9
31 9 35 0z m-3562 -698 c0 -416 -4 -653 -10 -660 -6 -7 -28 -15 -48 -19 -21
-3 -65 -19 -98 -36 -32 -16 -61 -30 -63 -30 -2 0 0 37 4 83 20 241 25 314 34
562 14 409 21 486 41 515 32 47 110 197 110 213 0 13 20 29 28 22 2 -1 3 -294
2 -650z m1609 492 c33 -39 41 -56 41 -87 0 -37 6 -70 32 -175 32 -133 61 -220
95 -294 13 -30 31 -75 40 -99 l15 -44 -74 -66 c-40 -37 -110 -102 -156 -146
-93 -90 -95 -90 -145 -19 -81 114 -96 433 -31 643 15 47 23 76 44 150 13 49
48 144 62 173 13 26 30 18 77 -36z m-777 -119 c-5 -104 14 -224 48 -313 5 -13
1 -36 -12 -65 -11 -25 -23 -54 -28 -65 -62 -161 -197 -415 -220 -415 -7 0 -9
157 -8 437 l3 437 60 15 c33 7 78 27 100 42 22 15 45 28 50 29 7 0 9 -35 7
-102z m8184 -98 c38 -34 83 -67 99 -74 69 -30 88 -36 119 -36 31 0 34 -3 40
-37 4 -21 11 -87 16 -148 13 -153 32 -310 61 -495 23 -153 27 -178 38 -230 18
-88 56 -258 74 -325 13 -52 21 -435 9 -435 -8 0 -20 61 -37 195 -8 63 -53 238
-75 290 -4 11 -13 36 -20 55 -14 41 -22 62 -43 110 -9 19 -23 55 -33 80 -50
127 -155 301 -266 439 l-68 83 0 294 c0 162 4 294 8 294 5 0 40 -27 78 -60z
m-1286 -34 c27 -5 32 -19 60 -146 6 -30 16 -68 20 -85 5 -16 14 -50 20 -75 7
-25 16 -54 20 -65 4 -11 14 -40 21 -65 7 -25 16 -49 21 -54 4 -6 8 -17 8 -26
0 -9 20 -56 45 -105 25 -50 45 -95 45 -100 0 -6 -20 -40 -45 -77 -45 -68 -63
-98 -118 -198 -47 -85 -53 -92 -64 -78 -6 7 -27 54 -48 103 -59 142 -62 147
-84 197 -11 26 -21 54 -21 61 0 7 -4 17 -9 23 -12 13 -71 183 -71 205 0 10 11
26 25 35 14 9 31 31 39 48 29 67 56 193 56 264 0 73 21 153 40 148 8 -2 26 -7
40 -10z m-8044 -210 c-31 -729 -46 -888 -87 -934 -72 -80 -179 -263 -179 -305
0 -9 -4 -18 -9 -21 -5 -3 -11 -16 -14 -28 -3 -13 -11 -41 -17 -63 -38 -133
-63 -303 -76 -520 -8 -126 20 -381 56 -525 6 -25 14 -60 17 -78 3 -18 9 -35
14 -38 5 -3 9 -15 9 -27 0 -25 32 -118 79 -227 29 -66 45 -99 107 -218 18 -34
18 -50 -1 -86 -8 -15 -15 -36 -15 -45 0 -9 -4 -21 -9 -26 -4 -6 -21 -52 -37
-102 -28 -89 -44 -116 -44 -72 0 11 -4 29 -10 39 -10 18 -33 97 -51 175 -6 22
-14 58 -20 80 -32 126 -61 285 -79 435 -5 41 -14 113 -20 160 -23 181 -31 351
-35 780 -5 445 -5 445 20 560 25 113 37 176 56 295 5 33 14 87 19 120 29 177
39 250 59 415 6 47 15 121 21 165 6 44 13 101 17 127 l5 47 47 6 c52 6 121 38
147 66 32 36 37 12 30 -155z m7542 -143 c24 -29 68 -71 98 -94 30 -22 54 -47
54 -56 0 -9 4 -30 9 -47 5 -17 15 -51 22 -76 17 -67 31 -113 39 -135 30 -82
48 -151 42 -157 -5 -5 -19 7 -32 24 -32 44 -168 173 -233 221 -29 21 -59 44
-68 51 -8 7 -52 35 -97 62 -51 30 -82 55 -82 66 0 9 4 18 8 20 13 5 68 84 115
163 l40 69 21 -28 c12 -16 40 -53 64 -83z m-5986 -66 c4 -70 12 -136 18 -146
12 -24 13 -88 1 -95 -4 -3 -11 -20 -15 -37 -3 -17 -12 -45 -20 -62 -8 -18 -48
-122 -91 -232 -42 -110 -88 -224 -101 -253 -27 -58 -23 -58 -79 -11 -11 9 -42
24 -68 34 -45 17 -51 23 -83 90 -19 40 -50 90 -69 113 -19 22 -35 46 -35 53 0
6 31 64 69 128 60 102 107 193 131 256 4 11 12 31 18 45 6 14 24 61 40 105
l30 80 41 -3 c57 -3 110 12 145 43 53 46 60 35 68 -108z m7358 -19 c45 -24
199 -179 267 -268 75 -99 199 -321 243 -435 4 -11 12 -31 18 -45 5 -14 14 -38
20 -55 9 -27 15 -49 43 -150 42 -152 44 -205 12 -269 -23 -44 -91 -114 -159
-162 -68 -49 -221 -124 -251 -124 -11 0 -23 -3 -27 -7 -4 -5 -57 -13 -118 -18
-114 -11 -262 0 -353 25 -22 6 -50 14 -63 17 -12 3 -25 9 -28 14 -3 5 -11 9
-18 9 -34 0 -186 97 -249 158 -106 104 -134 170 -108 256 35 119 55 176 72
213 10 24 19 45 19 48 0 13 110 227 137 267 16 24 33 50 36 58 36 79 309 390
411 468 36 27 44 27 96 0z m-5872 -10 c6 -7 26 -42 45 -77 65 -120 167 -243
272 -327 58 -47 182 -134 191 -134 3 0 19 -9 34 -20 16 -11 52 -33 82 -48 29
-16 62 -33 73 -39 66 -36 247 -110 325 -132 25 -7 54 -17 65 -21 11 -5 34 -11
50 -15 17 -3 50 -10 75 -16 289 -60 631 -72 860 -28 237 45 452 119 587 200
78 47 108 58 100 36 -6 -16 -78 -137 -208 -347 -163 -265 -383 -576 -564 -798
-55 -68 -113 -140 -130 -161 -52 -66 -209 -244 -354 -401 -283 -305 -616 -622
-891 -847 -255 -208 -512 -366 -672 -412 -21 -6 -53 -15 -71 -21 -47 -14 -203
-12 -246 2 -122 42 -131 59 -142 254 -5 88 -13 213 -19 279 -19 217 -29 338
-39 485 -14 195 -27 338 -60 705 -6 61 -13 137 -16 170 -27 311 -43 421 -62
436 -19 17 -71 -11 -88 -47 -18 -39 -10 -368 34 -1279 6 -121 15 -292 21 -380
61 -925 61 -1412 0 -1750 -6 -33 -13 -76 -16 -95 -8 -53 -55 -226 -75 -275 -4
-11 -18 -49 -30 -85 -37 -112 -75 -195 -115 -251 -154 -217 -306 -383 -443
-487 -75 -56 -225 -138 -291 -158 -19 -6 -55 -17 -80 -23 -25 -7 -59 -17 -76
-22 -38 -11 -221 -12 -228 0 -3 4 -8 325 -12 712 l-6 704 32 40 c36 45 137
205 150 238 4 12 24 58 44 102 59 128 71 158 87 210 6 22 17 56 24 75 11 30
30 102 65 240 52 211 81 588 61 805 -12 138 -7 154 40 109 59 -55 166 -196
223 -294 24 -43 116 -229 137 -277 5 -13 13 -33 18 -45 30 -72 71 -211 97
-328 21 -91 30 -513 15 -650 -17 -145 -34 -250 -61 -375 -6 -27 -14 -65 -17
-83 -3 -18 -9 -35 -14 -38 -5 -3 -9 -15 -9 -26 0 -12 -5 -35 -10 -52 -26 -80
-109 -344 -115 -366 -3 -14 -10 -34 -14 -45 -29 -72 -41 -145 -23 -145 10 0
92 85 127 133 54 73 121 203 159 307 15 41 31 84 36 95 13 31 21 57 31 93 5
17 14 49 20 70 6 20 15 56 20 80 5 23 14 63 19 90 49 222 70 526 51 725 -15
150 -41 313 -61 377 -4 14 -13 45 -20 70 -7 25 -16 54 -20 65 -5 11 -19 49
-31 85 -27 81 -87 216 -111 252 -10 14 -18 29 -18 33 0 13 -126 194 -185 265
-81 98 -195 205 -268 253 -31 21 -57 44 -57 51 0 7 24 62 54 122 69 140 113
269 136 399 7 39 16 92 21 118 15 81 11 431 -7 527 -45 251 -48 235 78 508 70
151 249 371 423 519 156 133 366 249 570 317 169 56 169 56 201 57 16 0 38 4
49 9 32 14 161 12 173 -2z m3436 -25 l68 -5 -6 -42 c-10 -66 -38 -189 -57
-252 -5 -17 -9 -42 -9 -57 0 -14 -4 -28 -9 -31 -5 -3 -11 -20 -14 -38 -6 -37
-16 -80 -45 -188 -12 -41 -32 -120 -47 -175 -14 -55 -31 -116 -36 -135 -16
-54 -29 -102 -40 -140 -6 -19 -13 -47 -16 -63 -3 -15 -9 -30 -14 -33 -5 -3 -9
-14 -9 -25 0 -10 -4 -27 -9 -37 -5 -9 -23 -64 -41 -122 -32 -106 -57 -180
-112 -325 -39 -104 -43 -114 -58 -150 -18 -41 -22 -53 -76 -195 -26 -69 -61
-156 -79 -195 -56 -121 -85 -185 -85 -191 0 -11 -243 -499 -283 -569 -22 -38
-53 -95 -70 -125 -16 -30 -38 -67 -49 -82 -10 -14 -18 -28 -18 -31 0 -6 -54
-95 -148 -247 -67 -108 -215 -328 -263 -390 -14 -19 -58 -78 -98 -130 -298
-398 -605 -714 -951 -976 -131 -100 -144 -109 -215 -153 -38 -25 -86 -54 -105
-67 -118 -76 -281 -155 -365 -177 -207 -54 -421 -10 -536 110 -73 77 -126 163
-158 264 -19 55 -20 72 -11 197 6 75 15 167 20 205 6 37 10 84 10 103 0 31 2
35 15 24 8 -7 15 -17 15 -22 0 -14 73 -118 112 -158 71 -75 163 -132 258 -159
25 -7 58 -17 74 -22 41 -13 197 -11 253 2 96 23 209 62 268 92 82 42 249 155
308 207 51 46 110 124 100 134 -9 9 -54 -5 -93 -29 -143 -89 -269 -147 -410
-190 -102 -31 -132 -35 -240 -35 -172 0 -258 36 -376 155 -131 133 -227 355
-264 613 -17 115 -5 125 96 80 25 -11 233 -4 294 10 137 32 294 93 377 145 24
15 45 27 49 27 6 0 241 159 272 185 9 8 67 53 127 101 216 171 381 320 615
554 126 126 368 382 434 461 16 19 45 52 65 74 49 56 140 166 244 295 18 23
81 104 89 115 4 6 20 26 36 45 96 119 371 518 476 690 15 25 32 54 39 65 7 11
24 39 40 62 15 23 27 44 27 46 0 3 19 36 42 73 72 119 248 459 248 480 0 10
74 117 115 166 7 9 19 27 26 40 6 13 15 25 18 28 3 3 13 19 21 35 42 84 52 97
74 90 12 -4 52 -9 90 -12z m4501 -66 c95 -124 207 -225 300 -272 l40 -20 -2
-85 c-4 -123 -23 -441 -33 -540 -27 -266 -81 -598 -132 -805 -5 -22 -12 -57
-15 -78 -3 -20 -9 -40 -14 -43 -5 -3 -9 -15 -9 -26 0 -12 -4 -35 -9 -52 -5
-17 -15 -51 -22 -76 -6 -25 -20 -72 -30 -105 -57 -187 -92 -302 -100 -320 -4
-11 -15 -40 -23 -65 -12 -40 -51 -143 -77 -207 -21 -52 -29 -72 -66 -166 -27
-68 -42 -96 -53 -94 -13 2 -15 30 -15 177 0 96 6 211 13 255 7 44 17 107 22
140 5 33 14 87 19 120 19 103 53 332 72 475 54 417 68 648 75 1323 3 284 9
517 12 517 4 -1 25 -24 47 -53z m-12566 -1087 c15 -282 49 -622 81 -810 37
-219 57 -333 69 -390 16 -77 33 -164 38 -195 2 -16 8 -39 13 -50 5 -11 11 -36
14 -55 5 -41 14 -82 26 -130 15 -59 34 -210 27 -216 -10 -11 -37 17 -37 37 0
11 -4 27 -9 37 -19 36 -51 112 -51 122 0 6 -9 29 -19 51 -11 22 -23 54 -27 72
-3 17 -10 38 -14 47 -5 8 -18 42 -30 75 -12 33 -26 69 -30 80 -41 96 -122 376
-171 595 -6 25 -14 61 -19 80 -10 37 -16 66 -30 140 -23 122 -32 170 -40 225
-5 33 -14 92 -20 130 -35 225 -66 595 -72 860 l-2 130 35 20 c50 28 145 114
199 180 l45 55 7 -448 c4 -246 11 -535 17 -642z m8449 1065 c342 -90 639 -288
840 -560 82 -111 90 -124 153 -255 27 -58 54 -113 59 -122 17 -30 11 -70 -20
-153 -24 -61 -51 -172 -65 -260 -9 -55 -20 -122 -25 -150 -42 -240 -42 -621 0
-860 5 -27 14 -79 20 -115 16 -92 60 -282 71 -302 5 -10 9 -25 9 -33 0 -8 4
-23 9 -33 14 -28 31 -87 31 -109 0 -12 -16 -32 -37 -49 -80 -61 -232 -227
-295 -321 -97 -146 -170 -307 -202 -443 -10 -41 -24 -102 -32 -135 -28 -112
-44 -365 -33 -525 10 -142 14 -169 43 -320 44 -229 123 -427 156 -394 9 9 4
138 -20 490 -15 219 2 520 39 684 5 25 14 63 19 85 31 139 112 322 208 470 59
91 208 248 232 243 22 -4 74 -153 69 -198 -3 -19 -12 -73 -21 -120 -65 -328
-80 -571 -51 -852 18 -164 22 -139 -47 -288 -29 -63 -41 -89 -59 -137 -5 -13
-13 -33 -18 -45 -40 -102 -77 -312 -68 -390 18 -150 143 -177 407 -90 155 51
301 144 425 271 33 34 62 61 65 61 4 0 42 -34 84 -75 122 -118 275 -210 416
-249 88 -25 120 -37 120 -46 0 -23 -357 -316 -531 -436 -46 -32 -86 -60 -89
-63 -5 -6 -27 -22 -130 -92 -102 -68 -104 -69 -190 -69 -74 0 -113 6 -215 32
-201 53 -338 135 -524 313 -81 78 -123 129 -228 272 -30 41 -98 178 -133 268
-4 11 -18 54 -30 95 -12 41 -26 86 -30 100 -11 33 -55 273 -72 385 -16 112
-15 679 1 875 23 265 42 539 57 780 8 135 19 315 25 400 23 334 29 499 35 863
6 386 4 418 -32 447 -25 22 -52 2 -62 -48 -23 -103 -26 -135 -71 -697 -17
-205 -30 -351 -41 -470 -6 -60 -15 -162 -21 -225 -5 -63 -14 -160 -19 -215 -5
-55 -13 -145 -19 -200 -5 -55 -17 -174 -26 -265 -15 -163 -24 -246 -45 -430
-18 -161 -30 -252 -40 -320 -5 -36 -14 -99 -20 -140 -19 -143 -52 -347 -79
-485 -5 -27 -16 -88 -25 -135 -23 -131 -35 -191 -47 -240 -5 -25 -14 -64 -20
-87 -5 -24 -13 -62 -18 -85 -6 -24 -14 -61 -20 -83 -6 -22 -14 -58 -20 -80 -5
-22 -14 -56 -19 -75 -6 -19 -17 -60 -26 -92 -8 -31 -29 -103 -47 -160 -17 -56
-35 -116 -39 -133 -9 -33 -18 -60 -30 -90 -5 -11 -18 -49 -30 -85 -12 -36 -25
-74 -30 -85 -4 -11 -34 -87 -66 -170 -54 -143 -157 -362 -219 -470 -23 -39
-138 -217 -151 -233 -3 -5 -254 -43 -409 -62 -442 -55 -1095 -79 -1095 -40 0
4 30 27 68 51 86 54 257 184 347 264 125 111 345 341 445 465 25 30 47 57 50
60 15 14 207 280 225 312 6 10 35 57 65 105 30 49 60 97 66 108 14 26 56 101
91 163 50 89 115 226 209 437 34 78 134 349 134 365 0 9 4 20 8 25 5 6 19 44
31 85 13 41 27 84 31 95 27 74 82 298 101 411 20 121 21 152 9 189 -19 58 -31
40 -101 -152 -12 -32 -25 -67 -29 -78 -4 -11 -13 -36 -20 -55 -7 -19 -16 -44
-20 -55 -5 -11 -38 -99 -75 -195 -37 -96 -73 -190 -81 -207 -8 -18 -20 -48
-28 -65 -30 -73 -49 -114 -62 -142 -8 -16 -14 -33 -14 -38 0 -10 -221 -455
-257 -518 -88 -154 -218 -358 -314 -495 -40 -56 -186 -244 -198 -255 -3 -3
-37 -41 -75 -85 -152 -174 -427 -422 -590 -530 -16 -11 -40 -27 -52 -35 -73
-49 -224 -136 -292 -168 l-80 -38 -94 8 c-51 5 -112 13 -136 18 -23 6 -62 10
-86 10 -25 0 -66 4 -93 10 -26 5 -84 14 -128 19 -102 13 -295 49 -440 81 -25
5 -64 14 -87 19 -24 6 -61 14 -83 20 -22 6 -53 13 -70 16 -16 4 -37 9 -45 12
-21 8 -119 37 -215 62 -44 12 -89 26 -100 31 -11 5 -40 16 -65 24 -46 14 -119
41 -155 56 -11 5 -37 14 -58 21 -43 15 -54 39 -42 97 4 20 11 57 15 82 4 25
13 72 20 105 31 156 87 460 106 580 8 50 19 117 24 150 6 33 15 94 21 135 6
41 15 100 20 130 5 30 12 79 15 108 5 42 10 52 25 52 11 0 19 -6 19 -13 0 -17
114 -127 170 -164 125 -81 241 -112 415 -113 119 0 196 13 320 55 84 28 260
113 336 161 24 16 56 35 71 44 51 28 271 195 392 296 128 107 392 365 491 480
33 38 67 76 75 84 9 8 36 40 60 70 25 30 53 64 62 75 82 99 222 284 294 386
170 244 214 308 214 314 0 3 22 38 49 78 47 71 121 195 238 402 46 82 283 562
323 655 18 41 41 95 52 120 11 25 26 59 33 75 7 17 24 57 38 90 58 137 167
422 167 436 0 8 4 19 8 25 5 5 15 29 22 54 8 25 17 50 20 55 4 6 17 44 30 85
12 41 37 120 55 175 17 55 38 120 45 145 7 25 16 54 20 65 18 49 30 93 30 111
0 11 4 24 8 29 5 6 14 35 21 65 7 30 21 82 31 115 10 33 28 101 40 150 12 50
26 108 31 130 6 22 13 54 15 70 3 17 9 39 14 50 5 11 11 34 14 50 2 17 10 50
16 75 6 25 15 63 20 85 8 37 12 56 26 123 6 28 15 28 132 -3z m-5168 -310 c10
-12 7 -24 -21 -65 -59 -86 -68 -54 -16 58 12 26 20 27 37 7z m-980 -207 c105
-33 146 -56 200 -111 62 -64 80 -98 80 -147 0 -28 -8 -46 -29 -69 -33 -35 -52
-37 -131 -17 -163 42 -218 48 -413 44 -210 -5 -270 -16 -327 -64 -38 -33 -63
-79 -55 -103 11 -35 54 -44 121 -25 202 55 364 57 568 5 120 -30 246 -131 276
-220 11 -35 11 -48 0 -79 -7 -20 -19 -42 -26 -49 -15 -15 -57 -17 -82 -4 -38
21 -97 44 -175 69 -78 26 -91 27 -287 27 l-205 0 -77 -36 c-102 -49 -126 -96
-71 -139 24 -19 35 -21 82 -15 30 4 66 11 80 16 41 16 317 12 386 -5 155 -38
211 -65 279 -130 49 -48 86 -119 86 -164 0 -31 -55 -92 -82 -92 -10 0 -42 12
-71 26 -79 41 -139 58 -276 79 -112 18 -171 19 -260 4 -160 -26 -231 -65 -231
-127 0 -50 24 -56 165 -46 181 13 330 9 400 -11 77 -22 153 -59 188 -93 38
-36 38 -97 0 -142 l-27 -32 -85 6 c-47 3 -115 10 -151 16 -36 6 -108 13 -160
16 -93 6 -97 5 -128 -21 -46 -39 -42 -79 14 -145 20 -24 22 -38 27 -307 4
-166 2 -283 -3 -283 -5 0 -17 11 -27 25 -10 14 -34 47 -54 73 -131 171 -260
404 -327 592 -24 67 -36 110 -51 175 -7 28 -16 66 -22 86 -29 112 -28 690 2
802 26 99 33 123 41 132 4 5 8 15 8 22 0 7 18 43 40 79 22 36 40 68 40 71 0 2
29 48 64 102 56 86 71 102 122 130 81 44 214 87 289 95 63 6 236 -4 275 -16z
m514 -368 c45 -40 87 -151 116 -305 6 -33 15 -79 20 -103 6 -23 10 -134 10
-247 0 -113 -4 -224 -10 -247 -5 -24 -14 -70 -20 -103 -47 -251 -96 -360 -280
-620 -50 -71 -67 -117 -55 -154 10 -32 39 -34 95 -6 29 15 54 24 57 22 24 -25
28 -573 4 -752 -10 -75 -15 -105 -40 -230 -23 -118 -99 -378 -121 -417 -6 -10
-10 -26 -10 -36 0 -10 -3 -22 -7 -26 -4 -4 -15 -31 -24 -59 -11 -34 -22 -53
-34 -56 -17 -3 -18 29 -12 760 4 420 10 861 13 979 6 205 8 216 29 240 43 48
55 85 55 174 l0 85 53 58 c28 32 58 68 65 80 14 26 16 175 3 201 -16 30 -61
132 -61 138 0 4 14 22 31 42 68 78 93 176 67 266 -11 39 -19 55 -68 141 -27
48 -25 77 6 106 14 13 35 41 45 62 11 20 24 37 29 37 5 0 25 -14 44 -30z
m8809 -232 c51 -51 106 -96 145 -116 l62 -33 1 -47 c4 -251 -20 -689 -50 -912
-5 -36 -16 -121 -25 -189 -22 -168 -27 -174 -66 -81 -14 33 -28 60 -32 60 -5
0 -8 5 -8 11 0 19 -78 125 -149 200 l-71 76 11 69 c5 38 14 96 20 129 16 95
29 193 39 285 12 105 30 598 23 616 -12 33 23 8 100 -68z m-10613 -75 c1 -241
36 -809 60 -978 5 -38 14 -99 19 -135 11 -77 31 -189 60 -335 20 -98 39 -181
61 -260 12 -44 25 -92 27 -108 3 -15 9 -30 14 -33 5 -3 9 -16 9 -29 0 -13 5
-27 10 -30 6 -3 10 -15 10 -26 0 -10 4 -27 9 -37 36 -71 37 -81 12 -179 -50
-199 -69 -290 -77 -378 -4 -33 -10 -64 -14 -69 -7 -7 -80 92 -80 109 0 4 -14
36 -31 73 -17 37 -35 77 -40 90 -5 12 -13 32 -18 45 -20 47 -80 216 -111 312
-18 55 -36 109 -41 120 -4 11 -10 31 -13 45 -2 14 -9 42 -15 63 -35 121 -35
120 -60 230 -26 112 -33 148 -47 247 -8 58 -19 134 -25 170 -24 156 -31 287
-36 628 -3 294 -2 363 9 366 119 34 155 58 238 159 30 36 58 66 63 67 4 0 7
-57 7 -127z m8695 -105 c145 -130 302 -217 480 -263 142 -37 240 -41 395 -16
187 31 395 132 535 260 l50 46 7 -60 c11 -90 25 -300 33 -482 8 -186 11 -181
-76 -135 -135 71 -255 102 -389 102 -105 0 -139 -10 -213 -62 -37 -27 -69 -92
-76 -158 -6 -52 -7 -55 -36 -58 -104 -9 -178 -42 -218 -98 -40 -54 -65 -151
-48 -182 16 -31 13 -62 -6 -68 -69 -23 -115 -60 -144 -114 -8 -14 -13 -57 -13
-100 0 -73 7 -97 47 -153 10 -15 8 -21 -15 -40 -46 -38 -68 -97 -68 -179 0
-141 20 -170 289 -443 271 -273 271 -274 282 -460 8 -142 18 -179 66 -242 50
-65 203 -290 203 -298 0 -4 9 -19 19 -34 29 -40 87 -158 111 -226 12 -33 25
-69 29 -80 11 -28 22 -66 60 -211 22 -84 11 -110 -37 -85 -9 5 -37 15 -62 22
-93 27 -200 78 -288 138 -122 84 -194 162 -264 289 -20 37 -43 68 -51 70 -8 2
-22 -15 -33 -40 -86 -191 -311 -386 -529 -459 -22 -7 -44 -17 -49 -21 -6 -4
-32 -8 -58 -8 -46 0 -48 1 -48 28 1 44 47 218 80 302 50 128 81 192 157 324
35 60 63 110 63 113 0 2 5 9 11 16 37 42 147 212 171 264 24 54 28 75 28 152
0 132 -30 239 -125 446 -36 78 -49 111 -105 250 -29 72 -61 149 -71 172 -11
24 -19 47 -19 53 0 6 -4 18 -9 28 -13 24 -46 114 -72 197 -12 39 -26 79 -30
90 -4 11 -19 74 -33 140 -87 415 -101 664 -55 970 21 140 62 345 70 345 4 0
28 -19 54 -42z m1175 -734 c79 -28 153 -65 240 -121 218 -141 352 -296 418
-483 33 -95 12 -248 -58 -405 -116 -264 -308 -569 -492 -781 -69 -80 -234
-214 -264 -214 -18 0 -32 53 -37 145 -6 91 -34 175 -83 250 -33 51 -67 86
-298 307 -141 135 -206 221 -206 274 0 44 33 68 76 55 89 -27 214 -103 378
-231 28 -22 115 -108 162 -162 51 -56 71 -68 120 -68 78 0 97 64 42 141 -62
86 -245 239 -426 354 -9 6 -38 25 -64 43 -26 17 -51 32 -55 33 -5 0 -39 21
-77 47 -97 66 -136 144 -96 195 19 24 28 27 86 27 35 0 72 -4 82 -9 9 -5 56
-27 105 -50 48 -22 112 -56 142 -76 31 -19 58 -35 61 -35 9 0 99 -63 102 -72
2 -4 8 -8 14 -8 14 0 87 -61 197 -166 154 -147 221 -164 221 -58 0 57 -44 120
-145 207 -170 147 -281 221 -494 328 -178 90 -221 126 -221 186 1 67 37 93
128 93 75 0 157 -26 292 -94 174 -87 338 -207 485 -355 71 -72 84 -81 116 -81
28 0 41 6 53 25 21 33 20 47 -8 103 -37 72 -223 242 -348 317 -86 52 -188 108
-263 144 -49 23 -106 50 -125 59 -24 12 -36 25 -38 42 -4 33 21 80 50 97 33
18 173 16 228 -3z m1108 -141 c47 -67 101 -120 154 -152 38 -22 38 -23 33 -74
-19 -190 -25 -270 -25 -355 0 -142 37 -309 77 -355 15 -16 10 -29 -60 -171
-75 -149 -217 -392 -320 -546 -54 -80 -203 -282 -234 -315 -10 -11 -36 -43
-58 -70 -100 -125 -344 -347 -438 -398 l-32 -17 -3 26 c-3 19 12 50 51 108
233 345 406 699 533 1086 62 192 57 173 109 395 14 61 30 128 35 150 17 70 43
198 51 250 4 28 13 82 19 120 15 91 25 159 39 269 10 80 16 106 25 106 2 0 21
-26 44 -57z m-11396 -179 c11 -84 37 -233 57 -334 5 -25 19 -81 31 -125 12
-44 25 -96 30 -115 15 -66 41 -155 76 -270 35 -112 40 -128 62 -180 5 -14 15
-41 22 -60 19 -55 26 -73 75 -190 31 -74 159 -337 205 -420 29 -53 30 -60 30
-180 l0 -125 -53 55 c-254 266 -513 651 -701 1042 -46 96 -53 122 -38 132 24
15 19 328 -7 491 -6 33 -13 83 -17 112 l-7 52 36 15 c49 20 100 62 139 114 18
23 37 41 42 39 6 -2 14 -26 18 -53z m1638 13 l95 -12 3 -1763 c1 -969 -1
-1762 -5 -1762 -5 0 -19 10 -33 21 -14 11 -52 38 -85 61 -33 22 -75 55 -92 71
l-33 31 0 1681 c0 925 3 1685 7 1689 4 4 17 4 28 1 11 -4 63 -12 115 -18z
m-536 -609 l33 -53 -10 -105 c-15 -147 -14 -467 1 -645 19 -230 30 -304 61
-430 24 -100 33 -128 76 -250 l45 -130 -5 -489 c-2 -269 -6 -490 -8 -492 -2
-2 -12 4 -23 14 -10 9 -41 35 -69 57 -27 22 -55 45 -61 50 -218 189 -209 178
-234 300 -7 33 -16 69 -20 80 -5 11 -12 45 -15 75 -4 30 -11 84 -16 120 -36
285 -46 745 -21 955 7 55 17 138 22 185 14 114 25 193 40 265 7 33 16 80 21
105 43 226 108 440 135 440 8 0 29 -24 48 -52z m9856 -408 c-11 -27 -29 -74
-41 -102 -11 -29 -26 -66 -34 -83 -7 -16 -26 -59 -41 -95 -106 -241 -336 -650
-366 -650 -4 0 -8 57 -8 126 0 114 2 129 22 157 22 31 122 161 170 220 53 66
208 294 208 306 0 5 4 11 8 13 5 2 24 35 42 73 28 59 45 84 57 85 2 0 -6 -22
-17 -50z m-1695 -360 c43 -119 48 -141 52 -221 4 -65 1 -84 -18 -120 -29 -58
-81 -128 -95 -129 -18 0 -28 245 -15 365 23 211 23 208 37 193 7 -7 25 -47 39
-88z m1033 -523 c3 -53 -2 -56 -35 -25 -27 26 -28 35 -6 60 25 28 38 17 41
-35z m-2295 -569 c4 -29 11 -84 17 -123 6 -38 14 -101 19 -140 6 -38 15 -108
21 -155 29 -218 60 -422 100 -660 6 -36 15 -96 20 -134 19 -133 61 -359 91
-479 10 -43 19 -80 19 -82 0 -5 -87 -45 -140 -64 -19 -7 -44 -17 -55 -21 -27
-12 -186 -64 -260 -85 -33 -10 -89 -26 -125 -37 -62 -18 -89 -25 -180 -48
-107 -27 -127 -32 -156 -41 -39 -12 -84 -12 -84 0 0 6 4 12 9 15 9 6 45 71
112 206 92 183 173 381 245 600 14 41 29 84 33 95 9 20 63 198 81 265 15 54
57 222 64 255 4 17 11 47 16 68 24 93 32 125 40 167 5 25 14 66 20 93 27 125
45 216 56 292 12 84 28 89 37 13z m-4842 -820 c-7 -40 -24 -127 -37 -193 -13
-66 -29 -145 -35 -175 -6 -30 -14 -71 -19 -90 -5 -19 -12 -48 -15 -65 -3 -16
-10 -49 -16 -72 -5 -24 -13 -62 -18 -85 -11 -56 -29 -134 -39 -178 -6 -22 -14
-34 -23 -32 -30 7 -460 219 -539 266 -25 15 -53 29 -62 33 -31 10 -20 32 20
39 86 14 273 119 417 233 114 91 345 337 345 368 0 12 22 34 28 28 3 -3 0 -38
-7 -77z m5204 -10 c22 -28 83 -95 135 -147 173 -174 454 -340 625 -370 22 -3
40 -12 40 -19 0 -20 -600 -323 -661 -334 -19 -3 -20 -2 -48 137 -9 44 -21 103
-26 130 -6 28 -21 106 -34 175 -13 69 -27 139 -31 155 -3 17 -11 53 -16 80 -5
28 -14 73 -20 100 -16 77 -22 145 -12 145 4 -1 26 -24 48 -52z"/>
<path d="M9149 12556 c-2 -3 -29 -10 -59 -15 -101 -18 -115 -23 -205 -66 -128
-62 -205 -140 -205 -209 0 -61 21 -58 175 27 58 32 149 63 248 86 84 19 165
14 287 -21 89 -24 151 -58 208 -112 61 -57 95 -117 119 -209 20 -76 23 -468 4
-642 -32 -297 -27 -356 39 -424 56 -57 120 -73 273 -68 186 7 232 20 242 69 4
18 1 37 -8 51 -14 21 -21 22 -180 22 l-166 0 -28 28 -28 28 3 132 c1 73 7 149
12 167 13 47 13 455 -1 522 -6 29 -15 78 -20 108 -12 65 -30 131 -39 145 -4 6
-13 26 -20 45 -19 50 -82 139 -127 181 -43 40 -120 88 -173 108 -19 7 -44 17
-55 21 -11 5 -36 12 -55 15 -46 9 -234 18 -241 11z"/>
<path d="M10600 12548 c-113 -18 -197 -54 -236 -101 -21 -25 -22 -31 -11 -59
7 -17 25 -41 40 -52 25 -18 32 -19 90 -8 34 6 82 17 107 23 60 16 286 23 330
11 19 -6 55 -16 80 -23 25 -7 63 -20 85 -29 186 -79 200 -81 225 -35 35 66
-86 177 -255 233 -150 50 -312 64 -455 40z"/>
<path d="M10454 11879 c-42 -12 -58 -34 -57 -75 2 -84 182 -164 366 -164 100
0 121 4 227 43 115 43 184 117 153 166 -22 35 -75 35 -198 1 -101 -28 -126
-31 -215 -28 -81 4 -106 9 -164 36 -38 18 -72 32 -75 31 -3 0 -20 -5 -37 -10z"/>
<path d="M8850 11872 c-37 -6 -50 -21 -50 -56 0 -22 9 -40 28 -58 32 -30 107
-72 142 -80 14 -3 51 -13 83 -22 68 -19 157 -21 224 -5 94 22 128 31 145 40
10 5 24 9 31 9 8 0 31 15 52 33 33 29 39 39 38 72 -2 55 -22 67 -108 62 -38
-2 -96 -11 -128 -20 -66 -19 -161 -22 -239 -6 -184 36 -188 37 -218 31z"/>
<path d="M9440 10688 c-18 -10 -26 -23 -28 -47 -3 -30 4 -40 60 -95 35 -33 77
-68 93 -76 17 -8 41 -22 55 -30 25 -17 89 -39 190 -67 74 -21 324 -20 400 0
93 25 152 47 220 80 77 38 77 38 148 103 l55 51 -22 32 c-19 26 -29 31 -62 31
-22 0 -47 -4 -57 -10 -20 -11 -134 -62 -177 -78 -83 -31 -166 -44 -290 -45
-184 -1 -287 28 -417 115 -65 43 -128 57 -168 36z"/>
<path d="M9754 10197 c-3 -10 -4 -24 0 -32 9 -24 66 -54 116 -60 25 -4 58 -11
74 -16 44 -14 201 7 248 33 45 26 50 54 11 69 -16 6 -121 13 -235 16 -187 5
-208 4 -214 -10z"/>
<path d="M14185 8341 c-59 -13 -106 -52 -131 -108 -39 -88 -27 -149 43 -213
55 -51 76 -60 138 -60 69 0 104 17 144 72 28 38 31 49 31 113 0 59 -4 77 -26
111 -46 71 -120 103 -199 85z m138 -55 c36 -27 16 -79 -29 -74 -23 2 -30 8
-32 31 -6 48 25 70 61 43z"/>
<path d="M15925 16238 c-2 -7 -11 -44 -20 -83 -15 -66 -31 -142 -120 -574 -20
-96 -39 -180 -43 -187 -5 -7 -58 36 -151 122 -96 90 -150 134 -165 133 -19 -1
-204 -192 -424 -439 -71 -81 -71 -84 3 -145 35 -28 51 -35 64 -29 10 5 96 93
191 197 95 103 176 187 179 187 3 0 64 -55 134 -123 l128 -122 -25 -115 c-79
-357 -106 -501 -97 -519 16 -30 133 -133 141 -124 4 4 19 67 34 138 16 72 43
201 62 287 19 86 34 164 34 172 0 26 18 27 86 6 42 -13 93 -20 143 -20 133 0
235 38 327 122 169 155 201 423 72 611 -27 38 -530 517 -545 517 -2 0 -6 -6
-8 -12z m333 -523 c95 -92 122 -146 122 -245 0 -168 -125 -293 -295 -294 -74
-1 -125 13 -163 42 l-23 18 55 254 c30 140 60 282 66 315 7 33 17 71 22 84 10
27 -3 38 216 -174z"/>
<path d="M2815 15073 c-19 -21 -35 -47 -35 -59 0 -19 41 -98 194 -372 32 -57
56 -106 53 -108 -2 -2 -114 27 -248 66 -134 38 -253 70 -264 70 -19 0 -85 -72
-85 -93 0 -9 26 -57 320 -587 108 -195 252 -456 320 -579 68 -122 131 -226
139 -229 17 -6 98 80 107 115 4 15 -45 109 -179 345 -101 177 -207 364 -235
413 -27 50 -89 159 -136 244 -48 84 -86 155 -84 157 2 1 84 -21 183 -51 99
-29 205 -60 235 -69 l55 -16 78 -143 c283 -520 316 -575 339 -561 7 5 76 90
380 473 94 119 98 125 81 142 -10 9 -183 63 -392 123 -206 58 -376 107 -377
109 -2 1 -29 50 -62 107 -32 58 -85 151 -116 208 -32 57 -56 105 -53 109 3 3
52 -9 109 -25 450 -134 609 -181 783 -234 280 -85 348 -103 367 -95 24 9 99
107 96 125 -3 16 -44 30 -298 102 -58 17 -161 46 -230 66 -69 20 -170 49 -225
64 -55 15 -250 71 -434 124 -183 53 -338 96 -343 96 -5 0 -25 -17 -43 -37z
m795 -888 c96 -29 175 -57 175 -63 0 -11 -176 -241 -185 -242 -6 0 -210 354
-210 364 0 4 10 4 23 0 12 -4 101 -31 197 -59z"/>
<path d="M17074 14857 c-71 -51 -320 -229 -554 -396 -495 -354 -500 -358 -500
-378 0 -31 292 -426 379 -513 149 -148 308 -213 521 -213 176 1 295 39 435
138 290 206 393 578 251 907 -40 93 -361 548 -386 548 -9 0 -74 -42 -146 -93z
m214 -274 c168 -234 201 -306 209 -454 7 -114 -6 -178 -52 -274 -62 -130 -178
-232 -330 -292 -64 -25 -82 -27 -200 -27 -117 0 -137 2 -197 26 -89 35 -176
96 -232 160 -48 56 -236 317 -236 328 0 3 42 35 93 71 98 70 698 500 782 562
28 20 53 37 57 37 3 0 51 -62 106 -137z"/>
<path d="M18055 13199 c-121 -55 -283 -128 -360 -164 -77 -35 -216 -98 -310
-140 -420 -189 -435 -197 -435 -218 0 -11 18 -59 39 -106 22 -47 74 -162 116
-256 183 -407 259 -567 271 -572 18 -7 131 46 138 64 5 12 -98 247 -316 726
-17 37 -29 69 -27 71 10 8 229 105 244 108 13 2 34 -36 96 -172 160 -352 203
-442 216 -447 20 -8 143 54 143 71 0 8 -39 100 -86 203 -47 103 -91 202 -99
218 -7 17 -31 69 -53 117 -29 64 -37 89 -29 96 15 11 219 103 223 99 1 -1 41
-87 89 -192 170 -375 189 -416 202 -427 16 -13 112 23 138 52 17 19 6 46 -226
549 -22 46 -39 87 -39 91 0 8 203 100 221 100 5 0 21 -24 34 -52 13 -29 60
-134 105 -233 45 -99 111 -245 147 -325 70 -156 78 -170 100 -170 23 0 123 49
129 63 4 12 -26 85 -176 412 -42 94 -115 252 -160 353 -57 125 -88 182 -99
182 -9 0 -115 -45 -236 -101z"/>
<path d="M1940 12417 c-13 -7 -35 -28 -47 -46 -80 -119 85 -254 189 -154 47
45 55 106 20 161 -31 47 -108 66 -162 39z"/>
<path d="M18770 11690 c-63 -16 -185 -44 -270 -64 -85 -20 -234 -54 -330 -76
-96 -23 -236 -55 -310 -72 -74 -17 -184 -43 -245 -58 l-110 -27 1 -44 c1 -24
18 -113 38 -196 34 -146 63 -270 141 -608 78 -339 87 -374 99 -384 8 -7 35 -4
86 8 41 11 158 38 260 61 102 23 262 59 355 81 94 22 240 56 325 75 374 86
411 96 417 112 9 21 -14 123 -30 139 -13 14 -11 14 -427 -81 -85 -19 -243 -55
-350 -81 -260 -61 -381 -87 -385 -83 -3 3 70 91 450 543 110 131 269 319 352
419 111 132 152 188 152 206 -1 14 -8 54 -17 90 -17 64 -18 65 -52 67 -19 1
-87 -11 -150 -27z m-40 -196 c0 -6 -172 -213 -340 -410 -80 -94 -417 -490
-487 -573 -12 -14 -23 -24 -25 -21 -3 3 -17 59 -31 125 -15 66 -41 179 -57
250 -78 334 -89 389 -79 396 6 3 54 16 107 29 54 12 174 40 267 61 94 22 231
53 305 71 74 17 176 41 225 53 98 25 115 28 115 19z"/>
<path d="M2230 11590 c-96 -16 -404 -67 -685 -114 -280 -47 -535 -88 -565 -92
-76 -9 -90 -18 -90 -57 1 -30 17 -45 258 -232 141 -109 407 -316 590 -460 419
-326 411 -321 431 -308 10 6 37 95 77 254 34 134 105 414 158 621 53 207 96
386 96 397 0 19 -6 21 -47 20 -27 -1 -127 -14 -223 -29z m40 -180 c0 -5 -41
-170 -91 -367 -50 -197 -96 -377 -101 -401 l-10 -42 -31 22 c-18 12 -102 77
-189 143 -86 66 -265 203 -397 304 -133 101 -240 185 -239 186 4 3 264 44 633
100 165 25 323 49 350 54 70 12 75 12 75 1z"/>
<path d="M1025 10044 c-43 -7 -124 -34 -170 -57 -90 -45 -196 -174 -225 -272
-10 -36 -24 -225 -46 -627 -6 -116 -5 -128 10 -128 9 0 117 53 239 119 451
241 530 281 535 276 3 -2 0 -91 -5 -197 -9 -160 -8 -196 3 -208 20 -21 693
-57 705 -38 5 7 9 46 9 85 0 67 -2 73 -22 77 -24 5 -423 26 -491 26 l-39 0 6
73 c3 39 8 120 12 179 l6 107 41 24 c23 14 143 77 267 142 124 65 235 127 248
138 20 18 22 30 22 114 l0 93 -107 -54 c-60 -30 -188 -97 -287 -150 -98 -52
-183 -93 -187 -90 -5 3 -9 11 -9 18 0 26 -40 104 -84 163 -48 66 -135 130
-221 162 -55 21 -157 33 -210 25z m183 -203 c91 -46 177 -165 170 -234 -3 -28
-13 -36 -128 -97 -170 -91 -463 -244 -474 -249 -15 -6 4 348 21 399 30 89 109
168 195 196 60 20 162 13 216 -15z"/>
<path d="M17832 9788 c-10 -13 3 -1222 14 -1295 4 -25 10 -33 26 -33 26 0 210
82 768 339 427 198 454 210 602 276 87 39 102 54 91 94 -5 20 -18 28 -138 76
-44 18 -163 67 -265 110 -102 43 -210 88 -240 100 -30 13 -136 57 -235 98
-468 195 -595 247 -603 247 -5 0 -14 -6 -20 -12z m353 -307 c94 -37 265 -107
381 -154 117 -48 252 -102 300 -122 49 -20 100 -41 114 -46 l25 -11 -27 -14
c-16 -8 -110 -51 -210 -95 -101 -45 -202 -90 -226 -100 -219 -100 -515 -229
-518 -226 -2 2 -6 116 -9 253 -3 137 -7 324 -10 417 -3 92 -2 167 3 167 4 0
84 -31 177 -69z"/>
<path d="M1334 8376 c-100 -19 -136 -32 -238 -84 -161 -82 -289 -234 -353
-417 -25 -73 -27 -93 -28 -230 0 -121 6 -191 33 -360 40 -258 40 -262 55 -268
12 -4 132 12 632 87 132 20 347 52 477 71 286 43 339 52 352 65 9 9 5 49 -49
404 -36 236 -80 346 -193 484 -152 185 -451 293 -688 248z m237 -176 c30 -6
92 -28 138 -50 150 -72 265 -213 306 -376 22 -88 66 -388 57 -395 -8 -6 -143
-28 -627 -99 -187 -27 -378 -56 -423 -64 -60 -9 -85 -10 -87 -2 -3 6 -16 94
-31 196 -40 281 -25 408 65 549 69 107 209 204 339 235 69 17 190 20 263 6z"/>
<path d="M17770 8114 c-14 -35 -12 -77 5 -157 51 -241 285 -405 529 -368 71
10 122 32 321 142 67 36 89 43 135 43 146 -1 310 -167 310 -314 0 -21 7 -45
15 -53 21 -22 135 -33 147 -16 5 8 7 54 4 103 -4 77 -10 100 -44 170 -83 173
-240 276 -424 276 -88 0 -168 -26 -274 -90 -128 -77 -185 -100 -249 -100 -66
0 -142 32 -202 84 -53 47 -113 162 -113 220 0 22 -4 46 -8 53 -6 9 -102 33
-134 33 -5 0 -13 -12 -18 -26z"/>
<path d="M17692 7628 c-20 -20 -15 -146 9 -219 58 -176 199 -294 386 -321 117
-17 205 3 338 79 154 88 174 96 230 101 87 7 149 -20 225 -97 70 -71 94 -121
106 -219 7 -59 14 -63 106 -66 51 -1 52 -1 59 34 23 106 -41 280 -139 378
-165 165 -383 186 -591 58 -143 -87 -189 -106 -260 -106 -86 0 -149 30 -220
105 -61 64 -88 120 -97 198 -7 55 -8 57 -43 66 -77 20 -97 21 -109 9z"/>
</g>
</svg>
